/* XPM */
static char *Bg64x64[] = {
/* columns rows colors chars-per-pixel */
"64 64 122 2 ",
"   c #31AFD4",
".  c #32AFD4",
"X  c #32B0D4",
"o  c #33B0D4",
"O  c #34B0D5",
"+  c #35B0D5",
"@  c #35B1D5",
"#  c #36B1D5",
"$  c #38B2D5",
"%  c #39B2D6",
"&  c #3AB3D6",
"*  c #3BB3D6",
"=  c #3CB3D6",
"-  c #3DB3D6",
";  c #3EB4D7",
":  c #41B5D7",
">  c #42B6D8",
",  c #43B6D8",
"<  c #44B6D8",
"1  c #45B7D8",
"2  c #47B7D9",
"3  c #48B8D9",
"4  c #49B8D9",
"5  c #4AB9D9",
"6  c #4BB9DA",
"7  c #4CBADA",
"8  c #4DBADA",
"9  c #50BBDB",
"0  c #53BCDB",
"q  c #54BDDB",
"w  c #57BEDC",
"e  c #59BFDC",
"r  c #5ABFDD",
"t  c #5CC0DD",
"y  c #5DC0DD",
"u  c #5EC0DD",
"i  c #60C1DE",
"p  c #62C2DE",
"a  c #65C3DF",
"s  c #66C3DF",
"d  c #66C4DF",
"f  c #68C4DF",
"g  c #69C5E0",
"h  c #6AC5E0",
"j  c #6CC6E0",
"k  c #6EC7E1",
"l  c #6FC7E1",
"z  c #74C9E2",
"x  c #76CAE2",
"c  c #77CAE3",
"v  c #81CEE5",
"b  c #83CFE5",
"n  c #84CFE5",
"m  c #85D0E6",
"M  c #86D0E6",
"N  c #88D1E6",
"B  c #89D1E6",
"V  c #92D5E8",
"C  c #93D5E8",
"Z  c #95D6E9",
"A  c #97D7E9",
"S  c #98D7EA",
"D  c #9DD9EA",
"F  c #A1DAEB",
"G  c #A3DBEC",
"H  c #A4DCEC",
"J  c #A5DCEC",
"K  c #A8DDED",
"L  c #AADEED",
"P  c #ADDFEE",
"I  c #AEE0EE",
"U  c #AFE0EE",
"Y  c #B2E1EF",
"T  c #B4E2EF",
"R  c #BBE4F1",
"E  c #BDE5F1",
"W  c #BDE6F1",
"Q  c #BEE6F2",
"!  c #C0E7F2",
"~  c #C1E7F2",
"^  c #C3E8F3",
"/  c #C4E8F3",
"(  c #C5E8F3",
")  c #C7E9F3",
"_  c #C8EAF3",
"`  c #CDECF5",
"'  c #CFECF5",
"]  c #D1EDF5",
"[  c #D2EDF6",
"{  c #D6EFF6",
"}  c #D7EFF7",
"|  c #D8F0F7",
" . c #D9F0F7",
".. c #DBF1F7",
"X. c #DBF1F8",
"o. c #DDF2F8",
"O. c #DEF2F8",
"+. c #DFF3F8",
"@. c #E1F4F9",
"#. c #E3F4F9",
"$. c #E5F5FA",
"%. c #E6F5FA",
"&. c #E8F6FA",
"*. c #EBF7FB",
"=. c #EEF8FB",
"-. c #EFF9FC",
";. c #F0F9FC",
":. c #F1FAFC",
">. c #F2FAFC",
",. c #F3FAFC",
"<. c #F4FBFD",
"1. c #F5FBFD",
"2. c #F6FCFD",
"3. c #F8FCFD",
"4. c #F9FCFE",
"5. c #F9FDFE",
"6. c #FAFDFE",
"7. c #FBFDFE",
"8. c #FCFEFE",
"9. c #FDFEFF",
"0. c #FEFFFF",
"q. c white",
/* pixels */
"                                                                                                                                ",
"                                                                                                                                ",
"                                                                                                                                ",
"                                                                                                                                ",
"                                                                                                                                ",
"                                                      + : q p f g s r 3 %                                                       ",
"                                              o 4 N T } $.:.4.8.8.7.<.&.o.^ D r $                                               ",
"                                        X 4 G | 5.q.q.q.q.q.q.q.q.q.q.q.q.q.q.0.$.Q p $                                         ",
"                                      - ' <.q.q.q.q.q.q.q.q.q.q.q.q.q.q.q.q.q.q.q.q.8.$.h                                       ",
"                                  # D 4.q.q.q.q.q.q.q.q.q.q.q.q.q.q.q.q.q.q.q.q.q.q.q.q.q.` 7                                   ",
"                                u *.q.q.q.q.q.q.q.q.q.q.q.q.q.q.q.q.q.q.q.q.q.q.q.q.q.q.q.q.6.A +                               ",
"                              M $.q.q.q.q.q.q.q.q.q.q.q.q.q.q.q.q.q.q.q.q.q.q.q.q.q.q.q.q.q.q.2.E #                             ",
"                          o J 0.q.q.q.q.q.q.q.q.q.q.q.q.q.q.q.q.q.q.q.q.q.q.q.q.q.q.q.q.q.q.q.q.q.| 1                           ",
"                        o R q.q.q.q.q.q.q.q.q.q.q.q.q.q.q.q.q.q.q.q.q.q.q.q.q.q.q.q.q.q.q.q.q.q.q.q.*.2                         ",
"                        H q.q.q.q.q.q.q.q.q.q.q.q.q.q.q.q.q.q.q.q.q.q.q.q.q.q.q.q.q.q.q.q.q.q.q.q.q.q.X.$                       ",
"                      b 9.q.q.q.q.q.q.q.q.q.q.q.q.q.q.q.q.q.q.q.q.q.q.q.q.q.q.q.q.q.q.q.q.q.q.q.q.q.q.q.) $                     ",
"                    e #.q.q.q.q.q.q.q.q.q.q.q.q.q.q.q.q.q.q.q.q.q.q.q.q.q.q.q.q.q.q.q.q.q.q.q.q.q.q.q.q.4.K                     ",
"                  @ &.q.q.q.q.q.q.q.q.q.q.q.q.q.q.q.q.q.q.q.q.q.q.q.q.q.q.q.q.q.q.q.q.q.q.q.q.q.q.q.q.q.q.9.u                   ",
"                  C q.q.q.q.q.q.q.q.q.q.q.q.q.q.q.q.q.q.q.q.q.q.q.q.q.q.q.q.q.q.q.q.q.q.q.q.q.q.q.q.q.q.q.q.@.                  ",
"                $ <.q.q.q.q.q.q.q.q.q.q.q.q.q.q.q.q.q.q.q.q.q.q.q.q.q.q.q.q.q.q.q.q.q.q.q.q.q.q.q.q.q.q.q.q.q.V                 ",
"              . ( q.q.q.q.q.q.q.q.q.q.q.q.q.q.q.q.q.q.q.q.q.q.q.q.q.q.q.q.q.q.q.q.q.q.q.q.q.q.q.q.q.q.q.q.q.q.>.>               ",
"              , >.q.q.q.q.q.q.q.q.q.q.q.q.q.q.q.q.q.q.q.q.q.q.q.q.q.q.q.q.q.q.q.q.q.q.q.q.q.q.q.q.q.q.q.q.q.q.q.n               ",
"              S q.q.q.q.q.q.q.q.q.q.q.q.q.q.q.q.q.q.q.q.q.q.q.q.q.q.q.q.q.q.q.q.q.q.q.q.q.q.q.q.q.q.q.q.q.q.q.q.} O             ",
"            . ] q.q.q.q.q.q.q.q.q.q.q.q.q.q.q.q.q.q.q.q.q.q.q.q.q.q.q.q.q.q.q.q.q.q.q.q.q.q.q.q.q.q.q.q.q.q.q.q.1.<             ",
"            , <.q.q.q.q.q.q.q.q.q.q.q.q.q.q.q.q.q.q.q.q.q.q.q.q.q.q.q.q.q.q.q.q.q.q.q.q.q.q.q.q.q.q.q.q.q.q.q.q.q.M             ",
"            x q.q.q.q.q.q.q.q.q.q.q.q.q.q.q.q.q.q.q.q.q.q.q.q.q.q.q.q.q.q.q.q.q.q.q.q.q.q.q.q.q.q.q.q.q.q.q.q.q.q._             ",
"            J q.q.q.q.q.q.q.q.q.q.q.q.q.q.q.q.q.q.q.q.q.q.q.q.q.q.q.q.q.q.q.q.q.q.q.q.q.q.q.q.q.q.q.q.q.q.q.q.q.q.O.&           ",
"          . ` q.q.q.q.q.q.q.q.q.q.q.q.q.q.q.q.q.q.q.q.q.q.q.q.q.q.q.q.q.q.q.q.q.q.q.q.q.q.q.q.q.q.q.q.q.q.q.q.q.q.,.w           ",
"          % X.q.q.q.q.q.q.q.q.q.q.q.q.q.q.q.q.q.q.q.q.q.q.q.q.q.q.q.q.q.q.q.q.q.q.q.q.q.q.q.q.q.q.q.q.q.q.q.q.q.q.0.j           ",
"          3 &.q.q.q.q.q.q.q.q.q.q.q.q.q.q.q.q.q.q.q.q.q.q.q.q.q.q.q.q.q.q.q.q.q.q.q.q.q.q.q.q.q.q.q.q.q.q.q.q.q.q.q.l           ",
"          0 :.q.q.q.q.q.q.q.q.q.q.q.q.q.q.q.q.q.q.q.q.q.q.q.q.q.q.q.q.q.q.q.q.q.q.q.q.q.q.q.q.q.q.q.q.q.q.q.q.q.q.q.l           ",
"          e <.q.q.q.q.q.q.q.q.q.q.q.q.q.q.q.q.q.q.q.q.q.q.q.q.q.q.q.q.q.q.q.q.q.q.q.q.q.q.q.q.q.q.q.q.q.q.q.q.q.q.q.l           ",
"          r <.q.q.q.q.q.q.q.q.q.q.q.q.q.q.q.q.q.q.q.q.q.q.q.q.q.q.q.q.q.q.q.q.q.q.q.q.q.q.q.q.q.q.q.q.q.q.q.q.q.q.q.l           ",
"          q >.q.q.q.q.q.q.q.q.q.q.q.q.q.q.q.q.q.q.q.q.q.q.q.q.q.q.q.q.q.q.q.q.q.q.q.q.q.q.q.q.q.q.q.q.q.q.q.q.q.q.q.l           ",
"          5 *.q.q.q.q.q.q.q.q.q.q.q.q.q.q.q.q.q.q.q.q.q.q.q.q.q.q.q.q.q.q.q.q.q.q.q.q.q.q.q.q.q.q.q.q.q.q.q.q.q.q.q.l           ",
"          = O.q.q.q.q.q.q.q.q.q.q.q.q.q.q.q.q.q.q.q.q.q.q.q.q.q.q.q.q.q.q.q.q.q.q.q.q.q.q.q.q.q.q.q.q.q.q.q.q.q.q.q.k           ",
"          o ] q.q.q.q.q.q.q.q.q.q.q.q.q.q.q.q.q.q.q.q.q.q.q.q.q.q.q.q.q.q.q.q.q.q.q.q.q.q.q.q.q.q.q.q.q.q.q.q.q.q.1.t           ",
"            I q.q.q.q.q.q.q.q.q.q.q.q.q.q.q.q.q.q.q.q.q.q.q.q.q.q.q.q.q.q.q.q.q.q.q.q.q.q.q.q.q.q.q.q.q.q.q.q.q.q.@.;           ",
"            v q.q.q.q.q.q.q.q.q.q.q.q.q.q.q.q.q.q.q.q.q.q.q.q.q.q.q.q.q.q.q.q.q.q.q.q.q.q.q.q.q.q.q.q.q.q.q.q.q.q.' .           ",
"            3 4.q.q.q.q.q.q.q.q.q.q.q.q.q.q.q.q.q.q.q.q.q.q.q.q.q.q.q.q.q.q.q.q.q.q.q.q.q.q.q.q.q.q.q.q.q.q.q.q.q.C             ",
"            o  .q.q.q.q.q.q.q.q.q.q.q.q.q.q.q.q.q.q.q.q.q.q.q.q.q.q.q.q.q.q.q.q.q.q.q.q.q.q.q.q.q.q.q.q.q.q.q.q.5.6             ",
"              K q.q.q.q.q.q.q.q.q.q.q.q.q.q.q.q.q.q.q.q.q.q.q.q.q.q.q.q.q.q.q.q.q.q.q.q.q.q.q.q.q.q.q.q.q.q.q.q.+.@             ",
"              8 2.q.q.q.q.q.q.q.q.q.q.q.q.q.q.q.q.q.q.q.q.q.q.q.q.q.q.q.q.q.q.q.q.q.q.q.q.q.q.q.q.q.q.q.q.q.q.q.Z               ",
"              o { q.q.q.q.q.q.q.q.q.q.q.q.q.q.q.q.q.q.q.q.q.q.q.q.q.q.q.q.q.q.q.q.q.q.q.q.q.q.q.q.q.q.q.q.q.q.3.6               ",
"                1 7.q.q.q.q.q.q.q.q.q.q.q.q.q.q.q.q.q.q.q.q.q.q.q.q.q.q.q.q.q.q.q.q.q.q.q.q.q.q.q.q.q.q.q.q.q.U                 ",
"                  P q.q.q.q.q.q.q.q.q.q.q.q.q.q.q.q.q.q.q.q.q.q.q.q.q.q.q.q.q.q.q.q.q.q.q.q.q.q.q.q.q.q.q.q.;.o                 ",
"                  = ,.q.q.q.q.q.q.q.q.q.q.q.q.q.q.q.q.q.q.q.q.q.q.q.q.q.q.q.q.q.q.q.q.q.q.q.q.q.q.q.q.q.q.q.c                   ",
"                    z =.q.q.q.q.q.q.q.q.q.q.q.q.q.q.q.q.q.q.q.q.q.q.q.q.q.q.q.q.q.q.q.q.q.q.q.q.q.q.q.q.8.~                     ",
"                    . F q.q.q.q.q.q.q.q.q.q.q.q.q.q.q.q.q.q.q.q.q.q.q.q.q.q.q.q.q.q.q.q.q.q.q.q.q.q.q.q...<                     ",
"                      X ! q.q.q.q.q.q.q.q.q.q.q.q.q.q.q.q.q.q.q.q.q.q.q.q.q.q.q.q.q.q.q.q.q.q.q.q.q.q.*.,                       ",
"                        %  .q.q.q.q.q.q.q.q.q.q.q.q.q.q.q.q.q.q.q.q.q.q.q.q.q.q.q.q.q.q.q.q.q.q.q.q.2.i                         ",
"                          % / q.q.q.q.q.q.q.q.q.q.q.q.q.q.q.q.q.q.q.q.q.q.q.q.q.q.q.q.q.q.q.q.q.q.*.i                           ",
"                            o L >.q.q.q.q.q.q.q.q.q.q.q.q.q.q.q.q.q.q.q.q.q.q.q.q.q.q.q.q.q.q.8.| :                             ",
"                              X m 3.q.q.q.q.q.q.q.q.q.q.q.q.q.q.q.q.q.q.q.q.q.q.q.q.q.q.q.q.q.W >                               ",
"                                  1 ) q.q.q.q.q.q.q.q.q.q.q.q.q.q.q.q.q.q.q.q.q.q.q.q.q.q.*.l                                   ",
"                                      a %.8.q.q.q.q.q.q.q.q.q.q.q.q.q.q.q.q.q.q.q.q.q.<.G .                                     ",
"                                        $ d ) *.q.q.q.q.q.q.q.q.q.q.q.q.q.q.q.q.1. .B 1                                         ",
"                                            . * h Y [ &.1.q.q.q.q.q.q.6.-.../ n < O                                             ",
"                                                    o 2 y l l l l l l s 9 $                                                     ",
"                                                                                                                                ",
"                                                                                                                                ",
"                                                                                                                                ",
"                                                                                                                                ",
"                                                                                                                                "
};
