/* XPM */
static char *Blue_Bg64x64[] = {
/* columns rows colors chars-per-pixel */
"64 64 35 1 ",
"  c #243B94",
". c #263E9C",
"X c #27409E",
"o c #2741A3",
"O c #2842A4",
"+ c #2A45AC",
"@ c #2D48AF",
"# c #2B47B3",
"$ c #2D4AB3",
"% c #2D4ABC",
"& c #314EBD",
"* c #2F4EC5",
"= c #2F4FC9",
"- c #314FC3",
"; c #304FC9",
": c #2F50CA",
"> c #3251C5",
", c #3353CD",
"< c #3857CF",
"1 c #365ACE",
"2 c #3656D0",
"3 c #3857D0",
"4 c #375BD0",
"5 c #3858D1",
"6 c #3562CF",
"7 c #3763D1",
"8 c #366BD2",
"9 c #3673D2",
"0 c #357BD2",
"q c #3484D3",
"w c #348DD3",
"e c #3393D3",
"r c #339CD3",
"t c #32A4D4",
"y c #31AFD4",
/* pixels */
"yyyyyyyyyyyyyyyyyyyyyyyyyyyyyyyyyyyyyyyyyyyyyyyyyyyyyyyyyyyyyyyy",
"yyyyyyyyyyyyyyyyyyyyyyyyyyyyyyyyyyyyyyyyyyyyyyyyyyyyyyyyyyyyyyyy",
"yyyyyyyyyyyyyyyyyyyyyyyyyyyyyyyyyyyyyyyyyyyyyyyyyyyyyyyyyyyyyyyy",
"yyyyyyyyyyyyyyyyyyyyyyyyyyyyyyyyyyyyyyyyyyyyyyyyyyyyyyyyyyyyyyyy",
"yyyyyyyyyyyyyyyyyyyyyyyyyyyyyyyyyyyyyyyyyyyyyyyyyyyyyyyyyyyyyyyy",
"yyyyyyyyyyyyyyyyyyyyyyyyyyytrrwwwwertyyyyyyyyyyyyyyyyyyyyyyyyyyy",
"yyyyyyyyyyyyyyyyyyyyyyytrq9871115,4689qetyyyyyyyyyyyyyyyyyyyyyyy",
"yyyyyyyyyyyyyyyyyyyyyr0855,55,<<553<<>,179etyyyyyyyyyyyyyyyyyyyy",
"yyyyyyyyyyyyyyyyyyyt81>533332,2;5>5,55<<5,<7wyyyyyyyyyyyyyyyyyyy",
"yyyyyyyyyyyyyyyyyt05,<553,3,322;,<5<<,<,5<5,58ryyyyyyyyyyyyyyyyy",
"yyyyyyyyyyyyyyyye7,55<,,3-#.........o$>2<,555,1qtyyyyyyyyyyyyyyy",
"yyyyyyyyyyyyyyyw6<,<5,>&OXo#%%*****$#+O+&<,,5<,<9tyyyyyyyyyyyyyy",
"yyyyyyyyyyyyyt0<333,;$Xo%**;;;;;**=*=*=%+O%,,55,18ryyyyyyyyyyyyy",
"yyyyyyyyyyyyy9,,3,,> o*;;;;;;;;;:=;;=:==*-#.><,54>7ryyyyyyyyyyyy",
"yyyyyyyyyyyy0,55,<# &-;;;;;;;222,,<,,>;>;==*O$,5<3<7tyyyyyyyyyyy",
"yyyyyyyyyyyq555,<oo*;;;;;<<-;;;:***--,,,>==*>%@,,3<39yyyyyyyyyyy",
"yyyyyyyyyye6,53,@O*===,,,;;;;:::::::;;;:,,;;;*#%<,5<<0yyyyyyyyyy",
"yyyyyyyyyt7<<,5OO-==;,,-:::::::22:2:::::;;,;;;;%$<,<55eyyyyyyyyy",
"yyyyyyyyyq,5<5$O*==;2>-;::,,2:22222,2,::;;*2=;==%&<3,>7yyyyyyyyy",
"yyyyyyyyt155,> -===2-==,2:,222:;,:;,222:;;;*,===-$,,<55qyyyyyyyy",
"yyyyyyyy9,,5, %==;2=;,,:22;;::,,2:2:::,2:2::=,;;*-#,55,1tyyyyyyy",
"yyyyyyyt<<5,$O*==2;=,=:22:;222222222,,;,22:,:=,;==%-,<<5qyyyyyyy",
"yyyyyyy05<,,O*==;,=:::22:,,2222222222:2:,22::::2===%<55>7yyyyyyy",
"yyyyyyy855,-O*==2-::222=,,22222222222222::2:::=2;=**>,555ryyyyyy",
"yyyyyyr1,<<+%==,,;;222:,222222,,::222222,,:2,:::2==*&555,qyyyyyy",
"yyyyyyw<<<>o*==2-;2:2:,2222,,222222222222,::22::,>=*>,,559yyyyyy",
"yyyyyy0,5,$O*=>,=,:22:22222:222522222:222,2:22::>:=*&>,5,7tyyyyy",
"yyyyyy8553O$==2-:::2::2:22,23555222222:2222:::::*2:**><5<4eyyyyy",
"yyyyyt6,,<X%*:,-:::2:2222,2223555555222222,::2::*,==*-55<5wyyyyy",
"yyyyyr7533o%=>,*:,,2:2222,235555555522222222:22,=,==*-,,,5wyyyyy",
"yyyyyr1<,,o*=,2*,:222222,,2355555525222:222,:2::=,==**5,5,wyyyyy",
"yyyyye1555o*=:,*:2:,:222,2223555552222222,22:22;=,;=-&5,55wyyyyy",
"yyyyye1<,,.*=,,*:22;:22222522555555553222222:2:2::::**3333wyyyyy",
"yyyyyr15<2o*=>,*::,,,22222255555553552222:22:22:::::**3;3;wyyyyy",
"yyyyyr6,,<o*==3*:222:2222,255555555522222222;2::;,::**33330yyyyy",
"yyyyyr6<55O%==,-:,:2=2222,225555555522,22222:22:;2;:;;323,wyyyyy",
"yyyyyy855<O$==,-:::2;,2,22,32555332222;2222:,,2;;;;;=*2355wyyyyy",
"yyyyyy9,5,&+===,;::23;22223;2222322222222::;22:;;;;;*;23<7ryyyyy",
"yyyyyyq55,,O===2::2:2;:22,332:22232;,22222::,:;;2;;;;22238yyyyyy",
"yyyyyyr,<55@%==2,:2:22;,222322,:222222222:,22:;;2;;;;;,2<qyyyyyy",
"yyyyyyy855,&@-=>2=;:,,,;2222222222222222:;22;;;;>:*-,,553ryyyyyy",
"yyyyyyy0,<,<O*==,:*,,,22;2:2,222222222::;22:;;;::**>5<5,7tyyyyyy",
"yyyyyyye4<5,&+-;:,;*:2,,2;:,,2,222222;:22::2;;;;==%,<<5,qyyyyyyy",
"yyyyyyyy8>55,X**::2;:::,,22::,222,,:;;2222::;,;;=*&5,5,5ryyyyyyy",
"yyyyyyyyr555<3X;;;;,:;;::2:222,>:;:2222:::;;2;;;*%3,<339yyyyyyyy",
"yyyyyyyyy9,,<,&+;;;=2,;:=2,,,:22222::2::::;2;;***><5<<4yyyyyyyyy",
"yyyyyyyyyt53<;2##*;;:,,;==::,:2:::222::=::2:;;;*>5,<<<wyyyyyyyyy",
"yyyyyyyyyyw533;,%#;;;;;,2;==::=,:2:::==;2:::;;*;,,5,<8yyyyyyyyyy",
"yyyyyyyyyyy02,5<<@+-;===,2<>>*%****->,3,===*;&&55<558ryyyyyyyyyy",
"yyyyyyyyyyyy9,3355&o*==-==;,,33<,<<,,>=====-$>5,55>6ryyyyyyyyyyy",
"yyyyyyyyyyyyt8,<5><<X#**=:=====:->====:=**%$2,,5<,4eyyyyyyyyyyyy",
"yyyyyyyyyyyyyt83,<5,<&+#%**====:======>%%%><,5<554eyyyyyyyyyyyyy",
"yyyyyyyyyyyyyyy97<,5<,,>$#$$%*-*=**%&%$&>5,55,<,8ryyyyyyyyyyyyyy",
"yyyyyyyyyyyyyyyyq5,5<5<<5,&@@+++####$&,5,,555>39ryyyyyyyyyyyyyyy",
"yyyyyyyyyyyyyyyyyr8<>5,555,<,25555,5<,,<55<>57wyyyyyyyyyyyyyyyyy",
"yyyyyyyyyyyyyyyyyyye65<<,5553<,<,,,5555<5,510tyyyyyyyyyyyyyyyyyy",
"yyyyyyyyyyyyyyyyyyyyte87<<,5,5<<5<,55,5,78qryyyyyyyyyyyyyyyyyyyy",
"yyyyyyyyyyyyyyyyyyyyyyytw08755,5<<<<678wtyyyyyyyyyyyyyyyyyyyyyyy",
"yyyyyyyyyyyyyyyyyyyyyyyyyytrewwwwwwwrtyyyyyyyyyyyyyyyyyyyyyyyyyy",
"yyyyyyyyyyyyyyyyyyyyyyyyyyyyyyyyyyyyyyyyyyyyyyyyyyyyyyyyyyyyyyyy",
"yyyyyyyyyyyyyyyyyyyyyyyyyyyyyyyyyyyyyyyyyyyyyyyyyyyyyyyyyyyyyyyy",
"yyyyyyyyyyyyyyyyyyyyyyyyyyyyyyyyyyyyyyyyyyyyyyyyyyyyyyyyyyyyyyyy",
"yyyyyyyyyyyyyyyyyyyyyyyyyyyyyyyyyyyyyyyyyyyyyyyyyyyyyyyyyyyyyyyy",
"yyyyyyyyyyyyyyyyyyyyyyyyyyyyyyyyyyyyyyyyyyyyyyyyyyyyyyyyyyyyyyyy"
};
