/* XPM */
static char *Red_Bg64x64[] = {
/* columns rows colors chars-per-pixel */
"64 64 66 1 ",
"  c #991F1F",
". c #9A1F20",
"X c #9F2021",
"o c #A42223",
"O c #AB2324",
"+ c #B42627",
"@ c #B92627",
"# c #B62628",
"$ c #BB2728",
"% c #BE2829",
"& c #C52A2B",
"* c #CB2B2D",
"= c #D22C2D",
"- c #CE2E30",
"; c #D32E30",
": c #CD3134",
"> c #C7363C",
", c #CB3539",
"< c #C6393E",
"1 c #C8383D",
"2 c #D23032",
"3 c #BE3E46",
"4 c #C33C42",
"5 c #BE4047",
"6 c #B7454D",
"7 c #BA434A",
"8 c #AF4C56",
"9 c #AC4E59",
"0 c #B54750",
"q c #B24953",
"w c #A7525E",
"e c #A9515C",
"r c #9E5A67",
"t c #9A5D6B",
"y c #A35562",
"u c #A05865",
"i c #8E6677",
"p c #8D6778",
"a c #876B7E",
"s c #896A7C",
"d c #926373",
"f c #7F7186",
"g c #7B758A",
"h c #76788F",
"j c #6F7E96",
"k c #6D7F98",
"l c #727C93",
"z c #836F83",
"x c #817185",
"c c #66859F",
"v c #6A829B",
"b c #5A8FAB",
"n c #5791AE",
"m c #5890AD",
"M c #4F98B6",
"N c #469FBF",
"B c #4A9BBB",
"V c #5295B3",
"C c #6586A0",
"Z c #6289A3",
"A c #3EA5C7",
"S c #3CA6C9",
"D c #36ABCF",
"F c #39A8CC",
"G c #31AFD4",
"H c #42A1C3",
/* pixels */
"GGGGGGGGGGGGGGGGGGGGGGGGGGGGGGGGGGGGGGGGGGGGGGGGGGGGGGGGGGGGGGGG",
"GGGGGGGGGGGGGGGGGGGGGGGGGGGGGGGGGGGGGGGGGGGGGGGGGGGGGGGGGGGGGGGG",
"GGGGGGGGGGGGGGGGGGGGGGGGGGGGGGGGGGGGGGGGGGGGGGGGGGGGGGGGGGGGGGGG",
"GGGGGGGGGGGGGGGGGGGGGGGGGGGGGGGGGGGGGGGGGGGGGGGGGGGGGGGGGGGGGGGG",
"GGGGGGGGGGGGGGGGGGGGGGGGGGGGGGGGGGGGGGGGGGGGGGGGGGGGGGGGGGGGGGGG",
"GGGGGGGGGGGGGGGGGGGGGGGGGGGDHNMMMMBNFGGGGGGGGGGGGGGGGGGGGGGGGGGG",
"GGGGGGGGGGGGGGGGGGGGGGGHngr03>:-;-,47wsCHGGGGGGGGGGGGGGGGGGGGGGG",
"GGGGGGGGGGGGGGGGGGGGGDZt1;;;=;;;;-;-;-;;9gHGGGGGGGGGGGGGGGGGGGGG",
"GGGGGGGGGGGGGGGGGGGHa4*2=2=2==2=;-;;;;;;;;-ubGGGGGGGGGGGGGGGGGGG",
"GGGGGGGGGGGGGGGGGDx2-;;=2=2==2==-;;;;-;;;;;-;yMGGGGGGGGGGGGGGGGG",
"GGGGGGGGGGGGGGGGVr:;;=;=2*&++oooooOO#&*;;*;;;;0kGGGGGGGGGGGGGGGG",
"GGGGGGGGGGGGGGDc3;--;;-&Ooo+@&&&&&&$$OoO&-;;;-;:sHGGGGGGGGGGGGGG",
"GGGGGGGGGGGGGGl4==;-=*o O&*&&&&&*&&*&&&@oO*==;;;2uDGGGGGGGGGGGGG",
"GGGGGGGGGGGGGh;-=2==oX@*******=****-****&&OO;;*=;-eDGGGGGGGGGGGG",
"GGGGGGGGGGGGj-;;=2@ @&******2222;;;;;****&&&O&=;;;;yNGGGGGGGGGGG",
"GGGGGGGGGGGC4;;;*@o%******=*&&&&&&&&--****&&&O&*;;-2dGGGGGGGGGGG",
"GGGGGGGGGGV3-;;;Oo&&*&==*&&*&===*=***&&*=-****@$-=;;:lGGGGGGGGGG",
"GGGGGGGGGGt;;;;@o&&**=;&&*=========;=;**&-=**&&$&;;;;3bGGGGGGGGG",
"GGGGGGGGGf:-;;$o&***--&*=======2==-;===**&&=**&*#&=;;-8GGGGGGGGG",
"GGGGGGGGA,;;;*.$***;&***=====**&****;;===**&=**&&#=-;;;kGGGGGGGG",
"GGGGGGGGz--;=o$&**;&**=====&====;==***-;=*=*&;*&&&$;;;=3GGGGGGGG",
"GGGGGGGD3;;;*o&&**:**=================**===*&*=-**@==;;;nGGGGGGG",
"GGGGGGGb;;==O&***2&**==-======;;=======*-;==*&*=**&%;;;-dFGGGGGG",
"GGGGGGFd;;=& &**-&*===-*=======;;=======*&===*&=***@*=;;4nGGGGGG",
"GGGGGGV4=;;O+&****===;*=====;;;====;;;====*===*&***&&;;;;xGGGGGG",
"GGGGGGl;;;*o&**=&*=*=*=======;=;=====;====*====&=**&%=*;;wDGGGGG",
"GGGGGGd-;;&O***:&====*===;;=;;;;;;;;;=;====*===****&**;;;3AGGGGG",
"GGGGGGq;;;$@***-*==-=====;==;;;;;;;;========*=***-****;;;4BGGGGG",
"GGGGGS7;;;+$**;&*==2&===;2=;;;;;;;;;;;======*==**-**&*;;;;VGGGGG",
"GGGGGH4;;;O&&*;&*==-*===2==;;;;;;;;;;==;==;=*==*&-**&&;;-;VGGGGG",
"GGGGGN>*;;O&**;&===-====2==;;;;;;;;;;;==;===*;==&***&*;--;VGGGGG",
"GGGGGB,;;;o&&=;&*==*====2==;;;;;;;;;;;==;===*;==******;;--VGGGGG",
"GGGGGB,;=2O&&*2&========;;;;;;;;;;;;;;;;=======******&==2;VGGGGG",
"GGGGGN>;;=O&*=2&=*======;;;;;;;;;;;;;;;;========&***&&;===VGGGGG",
"GGGGGN4*-;O&**-&*=======;=;;;;;;;;;;;;;;====*2=*****&*2=2=VGGGGG",
"GGGGGA7;;;@%&*=**===*===;;;;;;;;;;;;;;;;=====2*=&=***==222VGGGGG",
"GGGGGDq=;;&+**=**=======;;==;;;;;;;;;==;===*2*==*2**&*==2,BGGGGG",
"GGGGGGt2;;&+&**=&*==;===;;;===;;;;;=;=;;===*===&***&&=2=25HGGGGG",
"GGGGGGg;;**O&**=&*=*======;;;===;===;=====&2===&2***&=2==8DGGGGG",
"GGGGGGn,-;;+@&**=&==========;;====;;;====*2==**&***&*=*22sGGGGGG",
"GGGGGGSt;;=&o**==&**2=2*========;========*==*=&==*&&=;;;,bGGGGGG",
"GGGGGGGc-;;;O&&**2%===22**======;=======*====&=**&&*;-;=tHGGGGGG",
"GGGGGGGF1;-=*O&&*=:&*===--*==========*&*===***=*&&&=-;;;ZGGGGGGG",
"GGGGGGGGi-;;;+&&****&==*;;-**=======&====*=*&=**&*&;;;-4GGGGGGGG",
"GGGGGGGGB22===o%***2*&=====;;---=========*&&2=*&*&=*;;;gGGGGGGGG",
"GGGGGGGGGp-222&O&***2*&*===*;;*=========*&*2*&&*&*===25FGGGGGGGG",
"GGGGGGGGGAe==2=&O&****2&&*==*;=*=======*&==****%*;=;2<vGGGGGGGGG",
"GGGGGGGGGGb1=2==$O&*****;&&&**=-=====*&*==&**&%&2=;=2aFGGGGGGGGG",
"GGGGGGGGGGGh,-;;;&O&&&***==-*&&-&&&&*;;=****&%*;==;;uFGGGGGGGGGG",
"GGGGGGGGGGGFa;;;;;&o&&*&***-=;;::;;;**&**&&&$*;;;2;0VGGGGGGGGGGG",
"GGGGGGGGGGGGGd;;;=;;#O&&***&****-*******&&@%;-;;-;7HGGGGGGGGGGGG",
"GGGGGGGGGGGGGGp,-;;=;=#O@&*&**&*****&*&$+&=;-;;;2qHGGGGGGGGGGGGG",
"GGGGGGGGGGGGGGSf4;=;;-;*@O##&&&&&*&%$$#&*;;=;;;;rVGGGGGGGGGGGGGG",
"GGGGGGGGGGGGGGGGZq=;;;-;;;*&%#####@&**-;==;=;;4xFGGGGGGGGGGGGGGG",
"GGGGGGGGGGGGGGGGGBr;*;;;;==;=;;;;;;;-;-;;;;*=5CFGGGGGGGGGGGGGGGG",
"GGGGGGGGGGGGGGGGGGGny;;;=;;;;;;;;;;;;;;;;;;3hGGGGGGGGGGGGGGGGGGG",
"GGGGGGGGGGGGGGGGGGGGGNx0;-;;-;-;-;;;;-;;4dbGGGGGGGGGGGGGGGGGGGGG",
"GGGGGGGGGGGGGGGGGGGGGGGBjtq4,;;;*;;-43yfVFGGGGGGGGGGGGGGGGGGGGGG",
"GGGGGGGGGGGGGGGGGGGGGGGGGGDHMVVVVVVVNSGGGGGGGGGGGGGGGGGGGGGGGGGG",
"GGGGGGGGGGGGGGGGGGGGGGGGGGGGGGGGGGGGGGGGGGGGGGGGGGGGGGGGGGGGGGGG",
"GGGGGGGGGGGGGGGGGGGGGGGGGGGGGGGGGGGGGGGGGGGGGGGGGGGGGGGGGGGGGGGG",
"GGGGGGGGGGGGGGGGGGGGGGGGGGGGGGGGGGGGGGGGGGGGGGGGGGGGGGGGGGGGGGGG",
"GGGGGGGGGGGGGGGGGGGGGGGGGGGGGGGGGGGGGGGGGGGGGGGGGGGGGGGGGGGGGGGG",
"GGGGGGGGGGGGGGGGGGGGGGGGGGGGGGGGGGGGGGGGGGGGGGGGGGGGGGGGGGGGGGGG"
};
