/* XPM */
static char *RedOnly[] = {
/* columns rows colors chars-per-pixel */
"64 64 250 2 ",
"   c #941D1E",
".  c #951E1E",
"X  c #971E1F",
"o  c #981F20",
"O  c #991F20",
"+  c #9B1F20",
"@  c #9E2021",
"#  c #9F2021",
"$  c #9F2122",
"%  c #A02021",
"&  c #A12122",
"*  c #A22122",
"=  c #A32122",
"-  c #A52223",
";  c #A62223",
":  c #A72223",
">  c #A82223",
",  c #A82324",
"<  c #A92324",
"1  c #AA2324",
"2  c #AB2324",
"3  c #AC2324",
"4  c #AC2325",
"5  c #AB2425",
"6  c #AE2425",
"7  c #AF2425",
"8  c #AE2426",
"9  c #AF2426",
"0  c #B12425",
"q  c #B12525",
"w  c #B02526",
"e  c #B12526",
"r  c #B12527",
"t  c #B22526",
"y  c #B32526",
"u  c #B42526",
"i  c #B52526",
"p  c #B42527",
"a  c #B42627",
"s  c #B52627",
"d  c #B62627",
"f  c #B72627",
"g  c #B82627",
"h  c #B62628",
"j  c #B72628",
"k  c #B92728",
"l  c #BA2728",
"z  c #BB2728",
"x  c #BB2729",
"c  c #BC2728",
"v  c #BD2728",
"b  c #BC2729",
"n  c #BE2728",
"m  c #BB2829",
"M  c #BD2828",
"N  c #BC2829",
"B  c #BD2829",
"V  c #BE2829",
"C  c #BF2829",
"Z  c #BD282A",
"A  c #BE282A",
"S  c #C02829",
"D  c #C12829",
"F  c #C22829",
"G  c #C0282A",
"H  c #C0292A",
"J  c #C1292A",
"K  c #C0292B",
"L  c #C1292B",
"P  c #C2292A",
"I  c #C3292A",
"U  c #C2292B",
"Y  c #C3292B",
"T  c #C12A2B",
"R  c #C22A2B",
"E  c #C32A2B",
"W  c #C4292A",
"Q  c #C5292A",
"!  c #C4292B",
"~  c #C5292B",
"^  c #C6292B",
"/  c #C42A2B",
"(  c #C52A2B",
")  c #C62A2B",
"_  c #C72A2B",
"`  c #C22A2C",
"'  c #C32A2C",
"]  c #C32B2C",
"[  c #C42A2C",
"{  c #C52A2C",
"}  c #C42B2C",
"|  c #C52B2C",
" . c #C62A2C",
".. c #C72A2C",
"X. c #C62B2C",
"o. c #C72B2C",
"O. c #C72A2D",
"+. c #C62B2D",
"@. c #C62C2D",
"#. c #C72C2D",
"$. c #C62C2E",
"%. c #C72C2E",
"&. c #C62D2E",
"*. c #C72D2E",
"=. c #C82A2B",
"-. c #C92A2B",
";. c #CA2A2B",
":. c #CB2A2B",
">. c #CC2A2B",
",. c #C82A2C",
"<. c #C82B2C",
"1. c #C92B2C",
"2. c #C82B2D",
"3. c #C92B2D",
"4. c #CA2B2C",
"5. c #CB2B2C",
"6. c #CA2B2D",
"7. c #CB2B2D",
"8. c #C82A2F",
"9. c #CA2A2F",
"0. c #CB2A2F",
"q. c #CB2B2F",
"w. c #CC2A2C",
"e. c #CC2B2C",
"r. c #CD2B2C",
"t. c #CC2B2D",
"y. c #CD2B2D",
"u. c #CE2B2C",
"i. c #CF2B2C",
"p. c #CC2B2F",
"a. c #CD2B2F",
"s. c #CE2B2F",
"d. c #C82C2D",
"f. c #C92C2D",
"g. c #CB2C2D",
"h. c #C82C2E",
"j. c #C92C2E",
"k. c #C82D2E",
"l. c #C92D2E",
"z. c #C82D2F",
"x. c #CB2C2E",
"c. c #CA2D2E",
"v. c #CA2D2F",
"b. c #CA2E2F",
"n. c #CB2E2F",
"m. c #CC2C2D",
"M. c #CD2C2D",
"N. c #CE2C2D",
"B. c #CF2C2D",
"V. c #CC2C2E",
"C. c #CD2C2E",
"Z. c #CD2D2E",
"A. c #CE2C2E",
"S. c #CF2C2E",
"D. c #CE2D2E",
"F. c #CF2D2E",
"G. c #CE2C2F",
"H. c #CF2C2F",
"J. c #CE2D2F",
"K. c #CF2D2F",
"L. c #CC2E2F",
"P. c #CD2E2F",
"I. c #CE2E2F",
"U. c #CF2E2F",
"Y. c #D02C2D",
"T. c #D12C2D",
"R. c #D22C2D",
"E. c #D32C2D",
"W. c #D12C2E",
"Q. c #D02D2E",
"!. c #D12D2E",
"~. c #D02C2F",
"^. c #D12C2F",
"/. c #D02D2F",
"(. c #D12D2F",
"). c #D22C2E",
"_. c #D22D2E",
"`. c #D32D2E",
"'. c #D22D2F",
"]. c #D32D2F",
"[. c #D02E2F",
"{. c #D12E2F",
"}. c #D22E2F",
"|. c #D32E2F",
" X c #D42C2D",
".X c #D42D2E",
"XX c #D52D2E",
"oX c #D52D2F",
"OX c #D42E2F",
"+X c #D52E2F",
"@X c #CB2F30",
"#X c #CE2C30",
"$X c #CF2C30",
"%X c #CC2E30",
"&X c #CD2E30",
"*X c #CC2F30",
"=X c #CD2F30",
"-X c #CD2F31",
";X c #CE2E30",
":X c #CF2E30",
">X c #CE2F30",
",X c #CF2F30",
"<X c #CE2F31",
"1X c #CF2F31",
"2X c #D02C30",
"3X c #D12C30",
"4X c #D02D30",
"5X c #D12D30",
"6X c #D22D30",
"7X c #D32D30",
"8X c #D02E30",
"9X c #D12E30",
"0X c #D02F30",
"qX c #D12F30",
"wX c #D02F31",
"eX c #D12F31",
"rX c #D22E30",
"tX c #D32E30",
"yX c #D22F30",
"uX c #D32F30",
"iX c #D22F31",
"pX c #D32F31",
"aX c #D42D30",
"sX c #D42E30",
"dX c #D52E30",
"fX c #D42F30",
"gX c #D52F30",
"hX c #CD3031",
"jX c #CE3031",
"kX c #CF3031",
"lX c #D03031",
"zX c #D13031",
"xX c #D23031",
"cX c #D33031",
"vX c #D03032",
"bX c #D13032",
"nX c #D03132",
"mX c #D13132",
"MX c #D23032",
"NX c #D33032",
"BX c #D23132",
"VX c #D33132",
"CX c #D23133",
"ZX c #D33233",
"AX c #D43031",
"SX c #D53031",
"DX c #D43032",
"FX c #D43132",
"GX c #D33234",
"HX c None",
/* pixels */
"HXHXHXHXHXHXHXHXHXHXHXHXHXHXHXHXHXHXHXHXHXHXHXHXHXHXHXHXHXHXHXHXHXHXHXHXHXHXHXHXHXHXHXHXHXHXHXHXHXHXHXHXHXHXHXHXHXHXHXHXHXHXHXHX",
"HXHXHXHXHXHXHXHXHXHXHXHXHXHXHXHXHXHXHXHXHXHXHXHXHXHXHXHXHXHXHXHXHXHXHXHXHXHXHXHXHXHXHXHXHXHXHXHXHXHXHXHXHXHXHXHXHXHXHXHXHXHXHXHX",
"HXHXHXHXHXHXHXHXHXHXHXHXHXHXHXHXHXHXHXHXHXHXHXHXHXHXHXHXHXHXHXHXHXHXHXHXHXHXHXHXHXHXHXHXHXHXHXHXHXHXHXHXHXHXHXHXHXHXHXHXHXHXHXHX",
"HXHXHXHXHXHXHXHXHXHXHXHXHXHXHXHXHXHXHXHXHXHXHXHXHXHXHXHXHXHXHXHXHXHXHXHXHXHXHXHXHXHXHXHXHXHXHXHXHXHXHXHXHXHXHXHXHXHXHXHXHXHXHXHX",
"HXHXHXHXHXHXHXHXHXHXHXHXHXHXHXHXHXHXHXHXHXHXHXHXHXHXHXHXHXHXHXHXHXHXHXHXHXHXHXHXHXHXHXHXHXHXHXHXHXHXHXHXHXHXHXHXHXHXHXHXHXHXHXHX",
"HXHXHXHXHXHXHXHXHXHXHXHXHXHXHXHXHXHXHXHXHXHXHXHXHXHXHXHXdXdXdXsXdXsXdXdXHXHXHXHXHXHXHXHXHXHXHXHXHXHXHXHXHXHXHXHXHXHXHXHXHXHXHXHX",
"HXHXHXHXHXHXHXHXHXHXHXHXHXHXHXHXHXHXHXHXHXHXHXHXdXdX6XsX'.a.$XG.sXp.dX9.sXaXdXdXHXHXHXHXHXHXHXHXHXHXHXHXHXHXHXHXHXHXHXHXHXHXHXHX",
"HXHXHXHXHXHXHXHXHXHXHXHXHXHXHXHXHXHXHXHXHXdXdXdXH.sX$XsXdXdXdXdXdXdXdX7XdX5X5XG.6XdXdXHXHXHXHXHXHXHXHXHXHXHXHXHXHXHXHXHXHXHXHXHX",
"HXHXHXHXHXHXHXHXHXHXHXHXHXHXHXHXHXHXHXdX5XdXG.dXdXsX7X5XdX#X6X2XtX#XsXa.sX$XdXdXdX5XG.sXdXHXHXHXHXHXHXHXHXHXHXHXHXHXHXHXHXHXHXHX",
"HXHXHXHXHXHXHXHXHXHXHXHXHXHXHXHXHXHXsXdX$XdXsX7XdXH.7XV.3.U A N N A E O.A.$XsX2XdX7XsX2X7XdXdXHXHXHXHXHXHXHXHXHXHXHXHXHXHXHXHXHX",
"HXHXHXHXHXHXHXHXHXHXHXHXHXHXHXHXaXdXH.dXdX2X7XC. .e - = - < 6 q q 7 2 < ; , a  ./.5XsX7XdX6X6XdXHXHXHXHXHXHXHXHXHXHXHXHXHXHXHXHX",
"HXHXHXHXHXHXHXHXHXHXHXHXHXHXHXdXH.tXdX5XdX5X .; O ; f Q =.=.-.-.-.-.=.=.) c 3 & 2 3.7X5XdXsXsXH.dXHXHXHXHXHXHXHXHXHXHXHXHXHXHXHX",
"HXHXHXHXHXHXHXHXHXHXHXHXHXHX6XsXdX7X7X2X[ + % c =.=.-.-.4.4.4.5.5.4.4.4.-.-.=.=.P 2 - ..6X6XsXtXdXdXdXHXHXHXHXHXHXHXHXHXHXHXHXHX",
"HXHXHXHXHXHXHXHXHXHXHXHXHXsX6X7XdX7XG.6 . D =.-.-.4.5.5.e.m.M.N.N.N.m.e.5.5.4.-.-.=._ = d /.9.dXdXp.sXdXHXHXHXHXHXHXHXHXHXHXHXHX",
"HXHXHXHXHXHXHXHXHXHXHXHXdXa.sXsXH.2.- 2 I -.-.4.5.M.U.0X,X=Xn.b.b.n.P.>X,XU.M.5.5.-.-._ g e g.sXH.dX6X6XHXHXHXHXHXHXHXHXHXHXHXHX",
"HXHXHXHXHXHXHXHXHXHXHXdXdXdX~.6Xo.  f =.-.4.5.M.qXmX*.T W _ ;.:.:.:.=.( R } kXxXN.5.5.-.=.D ; 7.7X7XsXsXdXHXHXHXHXHXHXHXHXHXHXHX",
"HXHXHXHXHXHXHXHXHXHXdX2X6XdXsX..o v =.-.5.e.[.kX&.W ;.u.Y.Y.Y.Y.Y.Y.Y.Y.i.5.~ | *X[.M.5.-.=._ 6 m.2XdXdXG.tXHXHXHXHXHXHXHXHXHXHX",
"HXHXHXHXHXHXHXHXHXHX6XsXdX9.2.  n =.;.5.M.MXb.I e.i.Y.Y.T.T.T.T.T.T.T.T.Y.Y.i.u.) %.zXN.5.;.=._ 2 C.7X6XdXsXdXHXHXHXHXHXHXHXHXHX",
"HXHXHXHXHXHXHXHXHXdX6XsX'.H.; f =.;.5.N.wX| =.u.Y.T.T.T._.|.rXyXyXyX}.'._.T.T.Y.i.;.( =XF.5.;.=.I k (.6XsX~.sXHXHXHXHXHXHXHXHXHX",
"HXHXHXHXHXHXHXHXdX7XdXdX6Xe 3 =.-.5.N.BXR r.B.T.T.T.}.FX<Xd.X.<.<.<.o.v.bXAXT.T.T.Y.u.Y =XF.5.-.=.V J 5X5XdXdXdXHXHXHXHXHXHXHXHX",
"HXHXHXHXHXHXHXHXdX$X7X5X..X W -.5.M.lXR e.Y.T.T._.MXn.1.e.Y.R.R.R.R.R.i.5.f.,XtXT.T.Y.u./ &XN.5.-.=.i C.dXdXH.5XHXHXHXHXHXHXHXHX",
"HXHXHXHXHXHXHXdXG.7XsX6X# P -.5.r.MX| r.Y.T.T.pX<X1.Y.R.E. X X X X X XE.R.R.u.f.0X_.T.Y.u.( kXN.5.-.=.m 5X2XdXsXdXHXHXHXHXHXHXHX",
"HXHXHXHXHXHXHXdX5X7X2X6.= =.-.5.[.b.=.B.T.T.rXP.4.T.E. X X X X X X X X X XE.R.u.g.0X_.T.Y.:.+.[.e.-.=.M K.7XsXH.sXHXHXHXHXHXHXHX",
"HXHXHXHXHXHXHX6XdXdX(.5 C -.5.u.jXI u.T.T.uXP.r.R. X X X XOXfXuXuXuXOX.X X X XR.T.g.,XW.T.i.-.b.N.5.-._ U (.tXdXdXdXHXHXHXHXHXHX",
"HXHXHXHXHXHXdXG.sX/.o.# =.-.e.{.*.e.Y.T._.kX4.R. X X XXXSXeXP.Z.C.D.;XiX+X X X XE.B.f.rXT.Y.i.{ eXe.-.=.G S.sXdXG.dXHXHXHXHXHXHX",
"HXHXHXHXHXHXdX5XdXsXh > -.4.M.mXW i.T.T.cX1.T. X X X+XeXM.R.XXXXXXXXXXY.D.pX.X X XR.Y.L._.T.Y.-.c.N.5.-.F 4.~.sXdXdXHXHXHXHXHXHX",
"HXHXHXHXHXHXdX$X2XH.2 l -.5.F.*.;.Y.T.).-Xi.E. X X+XlXB.XXXX+X+X+X+XXXXX.XM.iX X XE.R.4.cXT.Y.u.' F.5.-.=.( 7X6X$X(.HXHXHXHXHXHX",
"HXHXHXHXHXHXsXdXsX(.: ) ;.e.[.R i.Y.T.DXf.R. X X XxXN..XoXdXdXdXdXdXdX+XXX.XD.OX X XE.N.L._.Y.i.) I.e.4.=.W 6X5XsXsXdXHXHXHXHXHX",
"HXHXHXHXHXHXp.6XG.3.2 =.4.e.,XW Y.T.T.BX4.E. X XgXZ.XXoXdXdXdXdXdXdXdXdX+XXXE.8X.X XE.R.d.'.T.Y.;.n.r.4.=.) (.dXdX~.dXHXHXHXHXHX",
"HXHXHXHXHXdXdXdX7X .7 =.4.r.=X_ Y.T.'.=Xu. X X.XAXY.XXdXdXdXdXdXdXdXdXdXdXXXXXJ.OX X XR.5.{.T.Y.>.c.N.5.-.) S.#XdX#XdXHXHXHXHXHX",
"HXHXHXHXHXdXq.dXG.U t -.5.N.n.;.Y.T.}.h.T. X X+XwX`.+XdXdXdXdXdXdXdXdXdXdX+XXXF.9X X XR.N.U.T.T.r.f.S.5.-.) S.4XdXH.sXHXHXHXHXHX",
"HXHXHXHXHXdX7XdX7XL u -.5.N.n.:.T.T.}.%.R. X X+X,X.X+XdXdXdXdXdXdXdXdXdXdX+XXXQ.9X X XR.B.U.T.T.r.d.F.5.-.) S.5XdX2XsXHXHXHXHXHX",
"HXHXHXHXHXdXG.dX4XL u -.5.N.n.:.T.T.}.%.R. X X+X,X.X+XdXdXdXdXdXdXdXdXdXdX+XXXQ.{. X XE.B.U.T.T.r.d.F.5.-.) ~.7XdX7XdXHXHXHXHXHX",
"HXHXHXHXHXdXH.dX5XY y -.5.N.L.;.T.T.|.j.T. X X+XzX).+XdXdXdXdXdXdXdXdXdXdX+XXXS.rX X XR.N.:XT.T.r.f.B.5.-.) H.#XdXp.sXHXHXHXHXHX",
"HXHXHXHXHXdX$XsXG.{ w -.5.r.=X_ Y.T.'.=Xu. X X XAXB.+XdXdXdXdXdXdXdXdXdXdX+XXXI.OX X XR.5.{.T.Y.w.c.N.5.-.) /.6XdXdXdXHXHXHXHXHX",
"HXHXHXHXHXHX'.sXdXV.4 =.4.e.,X/ Y.T.T.CX4.E. X X+XI..XoXdXdXdXdXdXdXdXdX+XXX!.yX.X XE.R.d.'.T.Y.;.L.r.4.=._ /.$XsX8.dXHXHXHXHXHX",
"HXHXHXHXHXHXdXtX6X/.< _ 4.e.0XR u.Y.T.DXf.R. X X XcXA..X+XdXdXdXdXdXdX+XXX`.U.+X X XE.u.&X_.T.Y.) I.e.4.=.) tXsXdXsXdXHXHXHXHXHX",
"HXHXHXHXHXHXsX#X7X7X9 c -.5.F.k.-.Y.T.R.hXu.E. X XXXNXC..X+X+X+X+X+X+XXX_.Z.fX X X XR.6.cXT.Y.u.] F.5.;.=.,.4X$XH.].dXHXHXHXHXHX",
"HXHXHXHXHXHXdXsXdX$Xx 1 -.5.M.CXW Y.T.T.NX1.T. X X XXXcXJ.B..XXXXXXXR.B.:XgX X X XR.B.&X_.T.Y.=.n.N.5.-.I C.7XdX7XdXHXHXHXHXHXHX",
"HXHXHXHXHXHXdXH.dXdX7.; =.-.e.{.*.:.Y.T.R.vX4.R. X X XXXgXAXwX>X>X>XiXfXXX X X XE.i.f.tXT.Y.i.| xXe.;.=.( (.3XdXG.dXHXHXHXHXHXHX",
"HXHXHXHXHXHXHXdXdXsX/.r S -.5.u.kXP i.T.T.uX>Xr.R. X X X XXX+X+X+X+X+XXX X X XE.T.x.0XT.T.Y.=.n.N.5.-.=.1.7XdXdX6XdXHXHXHXHXHXHX",
"HXHXHXHXHXHXHXdXG.tX7XA.> =.;.5.[.@X_ B.T.T.yX>X4.T. X X X X X X X X X X X XE.r.x.9X_.T.Y.;.#.[.5.;.=.I ].(.7X(.dXHXHXHXHXHXHXHX",
"HXHXHXHXHXHXHXdXsXdX^.~.< W -.5.r.MX+.e.Y.T.T.uXnX<.i.E. X X X X X X X XE.R.e.c.eX_.T.Y.u. .zXr.5.-.=.( 6X7XsXH.dXHXHXHXHXHXHXHX",
"HXHXHXHXHXHXHXHX7XG.dXdXC.@ Q -.5.r.lX` 5.Y.T.T._.NX=X3.5.i.R.E.E.E.T.r.4.l.lX|.T.T.Y.u.E >XN.5.-.=.V (.7XtXH.sXHXHXHXHXHXHXHXHX",
"HXHXHXHXHXHXHXHXdXdXdX7XG.B 0 =.;.5.N.ZX` e.B.T.T.T._.FXmXc.@.X.o.X.d.&XVXpXT.T.T.Y.u.E vXF.5.;.=.I 7.5XdXdXsXdXHXHXHXHXHXHXHXHX",
"HXHXHXHXHXHXHXHXHXsXH.dX7X~.e z -.;.5.N.zX@._ u.Y.T.T.T._.|.uXyXyXyX|.'.T.T.T.Y.B.-.| >XF.5.;.-.) ! 6X6XsX(.dXdXHXHXHXHXHXHXHXHX",
"HXHXHXHXHXHXHXHXHXHXdXsXsX7XS.@ J -.;.5.y.BX*XP ;.Y.Y.T.T.T.T.T.T.T.T.T.T.Y.Y.r.W z.bXM.5.;.-.=.k '.p.sXdX6XdXHXHXHXHXHXHXHXHXHX",
"HXHXHXHXHXHXHXHXHXHXsXH.dXdX$X/.- J -.;.5.e.[.vXz.I =.u.Y.T.T.T.T.T.T.Y.i.;.W $.<X[.e.5.;.-.=.b '.7XdXsXH.dXHXHXHXHXHXHXHXHXHXHX",
"HXHXHXHXHXHXHXHXHXHXHXdXsX7XsX7X/.$ c =.-.5.5.r.{.GXb.R E Q -.;.;.-.^ E R *.mXqXM.5.5.-.-.Q f '.aX~.sXdXdXdXHXHXHXHXHXHXHXHXHXHX",
"HXHXHXHXHXHXHXHXHXHXHXHX7X~.sX5X7XS.y y Q -.4.5.5.M.F.0XwX<X=X*X@X%X<X1X0XK.M.5.5.4.-.=.C H '.2X7XdXp.sXdXHXHXHXHXHXHXHXHXHXHXHX",
"HXHXHXHXHXHXHXHXHXHXHXHXHXdXp.sXdXp.(.K * Q =.-.4.5.5.5.5.e.M.M.M.M.t.5.5.5.5.4.-.=.=.y 2.(.6XdX7X~.dXdXHXHXHXHXHXHXHXHXHXHXHXHX",
"HXHXHXHXHXHXHXHXHXHXHXHXHXHXdXdX6XdX6X^.S.8 4 F =.-.4.4.4.5.5.5.5.5.5.4.4.4.-.=.Q f k /.2X7X7XdXsX7XdXHXHXHXHXHXHXHXHXHXHXHXHXHX",
"HXHXHXHXHXHXHXHXHXHXHXHXHXHXHXdX2XsXaXdX7X5X(.j 6 6 V _ =.-.-.-.-.-.-.-.=.I s j Z (.2XdX7XdXdXG.dXdXHXHXHXHXHXHXHXHXHXHXHXHXHXHX",
"HXHXHXHXHXHXHXHXHXHXHXHXHXHXHXHXdX7X(.dXtX7X5X7XC.L f e p g c c v v l f d x { A.6X7X5XdXdXH.sXsXdXHXHXHXHXHXHXHXHXHXHXHXHXHXHXHX",
"HXHXHXHXHXHXHXHXHXHXHXHXHXHXHXHXHXdXdXsXG.tX7XdX(.7X~.7XG.6. . . ...3./.7X7X$XsXsX7XdXH.dXsXdXHXHXHXHXHXHXHXHXHXHXHXHXHXHXHXHXHX",
"HXHXHXHXHXHXHXHXHXHXHXHXHXHXHXHXHXHXHXdXdX$X4XdXdXdX5XsXH.6X#X7X5X4X$XdX6X6XdXdXdXG.tX7XdXdXHXHXHXHXHXHXHXHXHXHXHXHXHXHXHXHXHXHX",
"HXHXHXHXHXHXHXHXHXHXHXHXHXHXHXHXHXHXHXHXHXdXdX7XG.7Xs.dX6XdXdXdXdXdXsXsXsXG.dXG.dXdXdXHXHXHXHXHXHXHXHXHXHXHXHXHXHXHXHXHXHXHXHXHX",
"HXHXHXHXHXHXHXHXHXHXHXHXHXHXHXHXHXHXHXHXHXHXHXdXdXdXdXdX0.dXq.7X$Xp.$X~.dXaXdXdXdXHXHXHXHXHXHXHXHXHXHXHXHXHXHXHXHXHXHXHXHXHXHXHX",
"HXHXHXHXHXHXHXHXHXHXHXHXHXHXHXHXHXHXHXHXHXHXHXHXHXHXHXdXdXdXdXdXdXdXdXdXdXHXHXHXHXHXHXHXHXHXHXHXHXHXHXHXHXHXHXHXHXHXHXHXHXHXHXHX",
"HXHXHXHXHXHXHXHXHXHXHXHXHXHXHXHXHXHXHXHXHXHXHXHXHXHXHXHXHXHXHXHXHXHXHXHXHXHXHXHXHXHXHXHXHXHXHXHXHXHXHXHXHXHXHXHXHXHXHXHXHXHXHXHX",
"HXHXHXHXHXHXHXHXHXHXHXHXHXHXHXHXHXHXHXHXHXHXHXHXHXHXHXHXHXHXHXHXHXHXHXHXHXHXHXHXHXHXHXHXHXHXHXHXHXHXHXHXHXHXHXHXHXHXHXHXHXHXHXHX",
"HXHXHXHXHXHXHXHXHXHXHXHXHXHXHXHXHXHXHXHXHXHXHXHXHXHXHXHXHXHXHXHXHXHXHXHXHXHXHXHXHXHXHXHXHXHXHXHXHXHXHXHXHXHXHXHXHXHXHXHXHXHXHXHX",
"HXHXHXHXHXHXHXHXHXHXHXHXHXHXHXHXHXHXHXHXHXHXHXHXHXHXHXHXHXHXHXHXHXHXHXHXHXHXHXHXHXHXHXHXHXHXHXHXHXHXHXHXHXHXHXHXHXHXHXHXHXHXHXHX",
"HXHXHXHXHXHXHXHXHXHXHXHXHXHXHXHXHXHXHXHXHXHXHXHXHXHXHXHXHXHXHXHXHXHXHXHXHXHXHXHXHXHXHXHXHXHXHXHXHXHXHXHXHXHXHXHXHXHXHXHXHXHXHXHX"
};
