/* XPM */
static char *RedWin64x64[] = {
/* columns rows colors chars-per-pixel */
"64 64 83 1 ",
"  c #000000",
". c #1C0607",
"X c #2D0A0A",
"o c #340B0B",
"O c #3C0D0D",
"+ c #440F0F",
"@ c #450F10",
"# c #490F10",
"$ c #461010",
"% c #4C1011",
"& c #531212",
"* c #5D1414",
"= c #621515",
"- c #681617",
"; c #731818",
": c #7B1A1B",
"> c #901E1F",
", c #991F1F",
"< c #9A1F20",
"1 c #9F2021",
"2 c #A42223",
"3 c #AB2324",
"4 c #B42627",
"5 c #B92627",
"6 c #B62628",
"7 c #BB2728",
"8 c #BE2829",
"9 c #C52A2B",
"0 c #CB2B2D",
"q c #D22C2D",
"w c #CE2E30",
"e c #D32E30",
"r c #CD3134",
"t c #C7363C",
"y c #CB3539",
"u c #C6393E",
"i c #C8383D",
"p c #D23032",
"a c #BE3E46",
"s c #C33C42",
"d c #BE4047",
"f c #B7454D",
"g c #BA434A",
"h c #AF4C56",
"j c #AC4E59",
"k c #B54750",
"l c #B24953",
"z c #A7525E",
"x c #A9515C",
"c c #9E5A67",
"v c #9A5D6B",
"b c #A35562",
"n c #A05865",
"m c #8E6677",
"M c #8D6778",
"N c #876B7E",
"B c #896A7C",
"V c #926373",
"C c #7F7186",
"Z c #7B758A",
"A c #76788F",
"S c #6F7E96",
"D c #6D7F98",
"F c #727C93",
"G c #836F83",
"H c #817185",
"J c #66859F",
"K c #6A829B",
"L c #5A8FAB",
"P c #5791AE",
"I c #5890AD",
"U c #4F98B6",
"Y c #469FBF",
"T c #4A9BBB",
"R c #5295B3",
"E c #6586A0",
"W c #6289A3",
"Q c #3EA5C7",
"! c #3CA6C9",
"~ c #36ABCF",
"^ c #39A8CC",
"/ c #31AFD4",
"( c #42A1C3",
/* pixels */
"////////////////////////////////////////////////////////////////",
"////////////////////////////////////////////////////////////////",
"////////////////////////////////////////////////////////////////",
"////////////////////////////////////////////////////////////////",
"////////////////////////////////////////////////////////////////",
"////////////////////////////(TUURUTY^///////////////////////////",
"///////////////////////!IZckatwwerysfzBEY///////////////////////",
"/////////////////////^WvyeeeeeeweweweeeejZ(/////////////////////",
"///////////////////(Ns0eeeeeeweqeweeeeeqeeenL///////////////////",
"/////////////////~Hpeqeee0eqeewqeeeeeweeeeewebU/////////////////",
"////////////////Ucreeeewe09433222223690qeweeeqaD~///////////////",
"//////////////~Jaqpeee0932245999999863339weeerryG(//////////////",
"//////////////Fseee0q9213999999000909095130qqqqqen~/////////////",
"/////////////Aeweeqq2189009q00q9000w00009933eq0qeqx~////////////",
"////////////Swee0e8,899900q0ppppweee0000099939qeeeebY///////////",
"///////////Eseeeq5189q09qew009999999www00009939weeqrm///////////",
"//////////Raeeee41>9000ew9900qqq0qq00990p0000948qweerF//////////",
"//////////veewe72: +9qr990qq00qqqqq0qq009rq0+;059eeeeaL/////////",
"/////////Zywee81<   +990qqqeqqqpqqqqqq0q099&  ;969eeeea/////////",
"////////(yeee0<80+   o000qqeeq09000rpqqqq0#   +096eweesD////////",
"////////H0eeq27909+   O0qee9qqqqqqq000eq0+   o90997eeewa////////",
"///////~aeee01000e0%   O000qqqqqqqqqqq00#   O9q0005qeeeeI///////",
"///////Leeqq39000p90&   #qqqqqqqqqqqqqq&   +090q0098eeeqV^//////",
"//////^Veeq9,900r90q0%   &qqqqqeeeqqqq=   +0q09000050qeesP//////",
"//////Rsqee3400000qqqqO   %eepw0qqqee&   o0qqq00q0090eeeeH//////",
"//////Fqeeq2900090q0q00O   $0qqeeqqq*   X00wqq00q0098w0eez//////",
"//////Veew93900w9qqqqqqq+   #qeqeee=   o9qq0eqq000099qeewsQ/////",
"//////leee76000w00qeqqqqq$   #epee-   o0qqqqw0000q0090eeesT/////",
"/////!fwee4500e00qqp9qqqew$   $qp*   O0pqqqq0qqq9w0090eeeeR/////",
"/////(seee3990e90qqp0qqqe0q$   $%   O0e0qqqq0qq09w0090eqeeR/////",
"/////Ttwee3900q9qqq00qqqeqeq$      Oqeeqeqqq0eqq000090eewwR/////",
"/////Tyeee3900e9qqq0qqqqweeee%    oeeeeqeeqe0eqq900090ewqeR/////",
"/////Trwee2900p90qqqqqqqpqeeq+    o0eeqqeqqqqq0q90q090eeeeR/////",
"/////Tteeq3900p9qqqqqeeqpqqeO      o0eqqeqqqqqqq9q9099eeqeR/////",
"/////Yawqe4900e90qqqqqqqp00O   &*   o0qpqqqq0eqq9pq990eeeeR/////",
"/////Qaeee6790q0qqqq0qqqe0O   &ep=   o9pqqqqqqq09p099qee0pR/////",
"//////leee8590q09qqq00eqq%   &eeeq*   Oqqqq0wqq09q009qqepyU/////",
"//////veee94900q9qqqp0qq*   &qqeqpq*   %qqq0eqq0wq009qweqd(/////",
"//////Zee0w3900q9qqqewq=   %eqqqee00%   %09pqq09w0999qqeej//////",
"//////Lteee4400qq99q0p&   Oqeeqqeepeq%   +0qqq00w0090qqqpB//////",
"//////Qveee02000q90qq&   o0qqqqqeqqqq0+   O0q09w00990eeeyI//////",
"///////E0eee4890qr9q$   o9qqqqqqqqqqqqq+   O09wq0090eeeec(//////",
"///////~seee020000w$   Oww0qqqqqqqeeqq0q&   #0q0099qeeeeW///////",
"////////mweee48900*   O0wee00qqqqqqq9wpq0&   #90909eeews////////",
"////////Tpeewq290:   o0wqqqqrw9wqq0qeqqqe0O  .8998qqeepH////////",
"/////////mwee09390% X990qq0qeqqeqqqqqqqq099+.69990qqqes/////////",
"/////////!xeqep9399-9wp9900qeqweqqqqqq099pe089090eeeeiK/////////",
"//////////Lieeq0839900qrw90000qqq000999ww0009089eeeweH~/////////",
"///////////Atwqqe9380000qeeww9999990wqqq0000970eeeeen!//////////",
"///////////!Geeeee928900909weeeereeew09000997weeeeefR///////////",
"/////////////Veqeeee638990000000w00090009978eweeweaQ////////////",
"//////////////Myweeeeq63400090000000099857eqweeeelQ/////////////",
"//////////////(Zsreeeeew53658999999988680qeqeeewcR//////////////",
"////////////////Dlweweweeq09855566799wqeqqeeeesG^///////////////",
"/////////////////Tce0eeeeqqeeeeeeewqeeweeqeweaE^////////////////",
"///////////////////PbrerqeeeeeweeqqqeeeqeweaZ///////////////////",
"/////////////////////YCaeeeeweqeeqeeeweesVL/////////////////////",
"///////////////////////TDVasseeeeqqrsabHR~//////////////////////",
"//////////////////////////^(RRRRRRRUY^//////////////////////////",
"////////////////////////////////////////////////////////////////",
"////////////////////////////////////////////////////////////////",
"////////////////////////////////////////////////////////////////",
"////////////////////////////////////////////////////////////////",
"////////////////////////////////////////////////////////////////"
};
