/* XPM */
static char *Yellow_Bg64x64[] = {
/* columns rows colors chars-per-pixel */
"64 64 116 2 ",
"   c #58DB61",
".  c #5EDC76",
"X  c #51D97B",
"o  c #62DD6A",
"O  c #73DD62",
"+  c #6DDF75",
"@  c #74E071",
"#  c #7AE177",
"$  c #95962A",
"%  c #95992B",
"&  c #9C9D2C",
"*  c #9FA02C",
"=  c #A3A42E",
"-  c #A7A82F",
";  c #A9AA2F",
":  c #A6AA30",
">  c #ABAC31",
",  c #AFB032",
"<  c #B3B533",
"1  c #B7B835",
"2  c #BABC34",
"3  c #BDBE38",
"4  c #BEC236",
"5  c #BFC139",
"6  c #C3C537",
"7  c #C7C937",
"8  c #C8CA37",
"9  c #C3C539",
"0  c #C6C93A",
"q  c #CBCD3B",
"w  c #CED13D",
"e  c #D0D23F",
"r  c #81DD65",
"t  c #8DDC62",
"y  c #99DC63",
"u  c #93DE6C",
"i  c #A1DF6E",
"p  c #AADD68",
"a  c #B7DC66",
"s  c #BADE6E",
"d  c #8FE176",
"f  c #9BE076",
"g  c #94E27C",
"h  c #A8E17A",
"j  c #B7E27F",
"k  c #CDCF40",
"l  c #CFD140",
"z  c #D0D240",
"x  c #D3D44B",
"c  c #D5D653",
"v  c #D7D857",
"b  c #D6D658",
"n  c #D8D75A",
"m  c #D7D85A",
"M  c #D9D95D",
"N  c #C1DC65",
"B  c #CFDB65",
"V  c #C3DD68",
"C  c #DADA62",
"Z  c #D1DD6C",
"A  c #DCDC6A",
"S  c #DEDE73",
"D  c #E0DF79",
"F  c #C3E27F",
"G  c #C9E078",
"H  c #DFE077",
"J  c #D6E17C",
"K  c #E1E17C",
"L  c #46D79F",
"P  c #5EDC91",
"I  c #55DA9A",
"U  c #5BDB9E",
"Y  c #6BDF80",
"T  c #6FE084",
"R  c #79E28D",
"E  c #76E096",
"W  c #7FE492",
"Q  c #72E09E",
"!  c #48D7A0",
"~  c #42D6AE",
"^  c #40D6BC",
"/  c #49D8BF",
"(  c #55DAB7",
")  c #57DBB8",
"_  c #5EDCBA",
"`  c #65DDA3",
"'  c #65DDAF",
"]  c #60DDBB",
"[  c #34ACD4",
"{  c #3AAFD6",
"}  c #32B0D4",
"|  c #39B2D5",
" . c #35BDD5",
".. c #3BBED6",
"X. c #44B5D8",
"o. c #4BB7DA",
"O. c #3CD5CC",
"+. c #3ACBD4",
"@. c #45D7CE",
"#. c #55DBC4",
"$. c #5BDCC6",
"%. c #43C1D8",
"&. c #4AC3D9",
"*. c #45CFD8",
"=. c #4CD9D1",
"-. c #46D0D8",
";. c #51D9D1",
":. c #5DDCD5",
">. c #60DDC7",
",. c #86E484",
"<. c #82E489",
"1. c #AFE484",
"2. c #B0E485",
"3. c #C5E384",
"4. c #CDE382",
"5. c #D7E280",
/* pixels */
"} } } } } } } } } } } } } } } } } } } } } } } } } } } } } } } } } } } } } } } } } } } } } } } } } } } } } } } } } } } } } } } } ",
"} } } } } } } } } } } } } } } } } } } } } } } } } } } } } } } } } } } } } } } } } } } } } } } } } } } } } } } } } } } } } } } } ",
"} } } } } } } } } } } } } } } } } } } } } } } } } } } } } } } } } } } } } } } } } } } } } } } } } } } } } } } } } } } } } } } } ",
"} } } } } } } } } } } } } } } } } } } } } } } } } } } } } } } } } } } } } } } } } } } } } } } } } } } } } } } } } } } } } } } } ",
"} } } } } } } } } } } } } } } } } } } } } } } } } } } } } } [ } } } } } } } } } } } } } } } } } } } } } } } } } } } } } } } } } ",
"} } } } } } } } } } } } } } } } } } } } } } } } } } } [ +.;._ ] ] _ #.-...} } } } } } } } } } } } } } } } } } } } } } } } } } } ",
"} } } } } } } } } } } } } } } } } } } } } } }  .L r B M v x k k z k x c m C p X +.[ } } } } } } } } } } } } } } } } } } } } } } ",
"} } } } } } } } } } } } } } } } } } } } } &.<.H x w q l z q k q l q z 0 l q l l A 2.:.| } } } } } } } } } } } } } } } } } } } } ",
"} } } } } } } } } } } } } } } } } } } +.4.v 0 z w l l l z l w w l k l w l l z q l l z S P [ } } } } } } } } } } } } } } } } } } ",
"} } } } } } } } } } } } } } } } [ { u x q w l l l 7 w w z w w w q q l w l q w w l l z 0 e A / } } } } } } } } } } } } } } } } } ",
"} } } } } } } } } } } } } } } } ) S l l l l l q l 0 4 < : : * * = = = > < 5 0 w l q z k z k A # } } } } } } } } } } } } } } } } ",
"} } } } } } } } } } } } } } [ + c k l l l q q 3 : * * < 1 4 4 4 6 6 4 2 < > = > 3 q q l z q l z F +.} } } } } } } } } } } } } } ",
"} } } } } } } } } } } } } } i x l l l 0 w 2 $ & 2 4 9 8 8 8 8 8 6 0 7 7 7 6 7 2 : & 9 l 0 w z q e M X.[ } } } } } } } } } } } } ",
"} } } } } } } } } } } } } 1.k q z l q q = & 2 7 7 7 8 8 8 8 8 8 8 8 8 0 8 8 7 7 9 5 ; : 0 l 0 z w q A &.} } } } } } } } } } } } ",
"} } } } } } } } } } } [ i q e z q l 1 % 1 7 7 7 7 0 7 w w w w w q w w w q q 7 q 7 7 7 6 > 3 z z l l k m +.} } } } } } } } } } } ",
"} } } } } } } } } } } Y x z z q q < & 2 7 7 7 8 q w q 0 4 8 4 4 9 5 9 9 0 q q 7 8 8 7 6 6 > 3 0 l l q l G [ } } } } } } } } } } ",
"} } } } } } } } } } ( c q l l q > = 4 7 7 7 8 w 8 4 8 8 8 8 8 w w 8 8 8 8 8 4 8 w q 8 7 8 4 < 2 q q l l l g [ } } } } } } } } } ",
"} } } } } } } } } [ K e l q l 1 * 5 7 8 8 w l 4 4 8 q w 8 w w w w w w w w 8 8 8 4 0 w 8 8 7 7 < 5 l l l l M I } } } } } } } } } ",
"} } } } } } } } [ u x q w z 3 & 5 7 7 8 w 0 4 7 8 w w w w w w w w w q w w w 8 w 7 6 7 w 8 8 7 7 < 5 q l q q C } } } } } } } } } ",
"} } } } } } } } ..x z z 0 0 $ 2 7 7 w w 9 7 8 w w w w w w 8 8 8 8 8 8 8 w w w q 8 w 8 6 w 8 8 7 4 < k q l z w @ } } } } } } } } ",
"} } } } } } } } 3.0 q z e = 3 6 8 8 w 7 7 8 w w w w w 4 7 q w w w w w 8 8 8 w w w 8 8 8 6 8 8 8 7 7 1 z z w q C X.} } } } } } } ",
"} } } } } } [ X.b q z q 6 = 6 8 8 8 7 8 w 8 8 w w 7 0 q w w w w w w w w w 8 8 q w w w w 8 8 w 8 7 7 2 0 q l l z Q } } } } } } } ",
"} } } } } } } W l e q q $ 2 6 8 8 e 4 8 8 w w w 7 w w w w w w w w w w w w w w 8 8 w w 8 8 8 8 8 7 7 7 < l l l 0 J  .} } } } } } ",
"} } } } } } [ J z z l 2 = 6 8 8 w 7 8 w w w w 8 w w w w w w w l w w w w w w w w 8 8 w w w 8 8 w 8 7 6 4 0 q z z c ~ } } } } } } ",
"} } } } } } ~ x q q k > 2 8 8 q 0 7 8 w w w 8 w w w w w z w q q w 8 w w w w e w w 8 8 w w w 8 8 q 8 8 6 9 z l q w t } } } } } } ",
"} } } } } } o w z l q = 6 8 8 q 9 q w w w q 8 w w w w w 0 q l w w w e 8 8 e w w w w 8 e w w 8 8 q 8 8 6 4 q 0 l l A } } } } } } ",
"} } } } } } a q w q 9 > 7 8 q q 7 8 8 w w 8 w w w w e w w w e e e e e e q w e w w w 8 8 w w 8 8 8 q 8 6 9 0 w l 7 m +.[ } } } } ",
"} } } } [ [ C z z k 1 < 6 8 q 0 8 w w w 8 w w w w w w w w z z e e e e e w w q e w w w 8 8 w 8 8 0 q 8 0 9 0 l l l x #.[ } } } } ",
"} } } } } ..b 0 l q < 2 6 8 w 0 8 8 w w 8 8 w w w q w w z z z z z z z z e e q w w w w w 8 w w w 9 q q 7 7 9 l l w l ' } } } } } ",
"} } } } } -.c z z z ; 3 8 8 w 9 8 w 8 w 8 w w w w q w z z z z e e z e z e e e 8 e w w w 8 w 8 8 7 q 8 7 7 9 w w q w ' } } } } } ",
"} } } } } =.x q q k > 6 8 8 e 9 w w w 8 w w w w w q z z z z z z z z e z e e e 8 e w w w 8 e w 8 6 q q 7 7 9 l k k q ' } } } } } ",
"} } } } } #.x q z z = 6 8 8 q 9 8 w w 8 w w w w q w z l z z z z e z e e e w w w e w w w 8 w w q 7 8 8 8 7 5 l q k l ' } } } } } ",
"} } } } [ #.x q q l = 6 8 8 e 9 8 w w 7 q w e q q e e z z e z z z z z z e e w w e w w w 8 w 8 8 8 w 8 8 7 9 l l l w ' } } } } } ",
"} } } } } ;.x q l z - 6 8 q q 9 w 8 w q q e e e e q e z z z z e z z z e z e w q w w w w 8 w w w 8 8 8 8 7 9 w q q w ' } } } } } ",
"} } } } } @.c q q e > 4 7 8 z 9 8 w w q 8 w w w w 8 e e z e z z e z e z z z w q w w w w 8 w w 8 4 w 8 8 0 0 w l l l ' } } } } } ",
"} } } } } ..n z z z < 2 8 8 q 9 8 w w e 6 w e e z q q e z z e e z z z z w w q w w w w 8 8 w w w 8 w 8 8 4 0 l w 0 l ' } } } } } ",
"} } } } } [ C q z q 3 < 7 8 q q 8 8 w w 8 q e e e l q q e e e e z z l w w w w w w w w 8 8 w w 8 4 w 8 8 4 w l l l x #.} } } } } ",
"} } } } } } N q z q 9 > 7 8 8 q 7 8 w w k 8 q e e e z q q e e e z w z w w w w w w w w 8 w w w 8 w w 8 4 4 w w z 0 b +.} } } } } ",
"} } } } } } O z l 0 0 - 6 7 8 w 8 8 w 8 e 8 q e e w e w w 8 w e w w q q w l w w w w 8 8 w w 8 4 8 w 8 8 7 w q w z C } } } } } } ",
"} } } } } [ ! x q z l < 2 7 8 q 8 8 8 w q e 6 q w w e w e e q q w w w l l w w w w w 8 w w w 7 8 w 4 4 8 8 w q w l y } } } } } } ",
"} } } } } }  .H z z q 9 = 9 8 8 w 7 7 8 w w w 7 w w e w w w w w w l w w w w w w 8 8 w w w 8 7 q 8 8 9 5 q l z z x ! } } } } } } ",
"} } } } } } } ,.q q z l & 4 7 7 8 w 6 8 w w 8 w 7 q w w w w w w w w w w w w w w 8 q w w q 4 8 q 8 7 7 3 l q l q S ..} } } } } } ",
"} } } } } } } &.c q k q 0 = 7 7 8 w 8 6 8 w w w w 8 8 8 w e w w w w w w w w 8 8 w w w 8 8 7 8 8 7 7 6 q q l w l R } } } } } } } ",
"} } } } } } } } 5.q e z z , 3 7 8 8 w 7 8 8 w w w w e 8 6 8 w w w w q 0 4 8 w w w 8 w 8 7 w 8 8 7 6 9 z l q 0 v o.[ } } } } } } ",
"} } } } } } } } @.l z k 8 k = 4 7 8 8 w 7 6 8 8 w 8 w w e q 7 8 0 0 8 w w w w 8 w 8 8 4 w w 8 8 6 2 l 0 z z z h } } } } } } } } ",
"} } } } } } } } [ s k k z 8 9 - 6 7 8 8 8 w 7 8 w q w w w q e w w w w w w w w w 8 8 4 w 8 8 8 4 4 0 w z q q v [ } } } } } } } } ",
"} } } } } } } } } +.S l k z e 5 ; 7 7 8 7 w w 6 6 8 8 w 8 w w w w w w w 8 8 8 8 4 w w 8 8 8 4 4 0 z q l w c o } } } } } } } } } ",
"} } } } } } } } } [ ` x l z q q 2 ; 6 7 8 8 8 w 8 7 7 8 8 8 q q w 8 8 8 8 8 8 8 w 8 8 8 8 8 4 8 w l z q l 3.[ } } } } } } } } } ",
"} } } } } } } } } } [ f z 0 z z q 9 : 4 9 8 8 8 8 q q k 0 9 9 6 6 9 9 9 0 q q q 8 8 7 7 9 3 0 q l w q z S %.} } } } } } } } } } ",
"} } } } } } } } } } } [ Z z e e l z 9 = 4 7 8 8 8 8 8 0 q l z k k l z k q 8 8 8 8 7 7 9 < 0 z q l z q c ~ } } } } } } } } } } } ",
"} } } } } } } } } } } } | 5.q q z q k l , - 3 9 8 8 8 8 8 8 8 7 8 8 8 8 8 8 8 7 6 9 1 1 l q l l q q C $.} } } } } } } } } } } } ",
"} } } } } } } } } } } } } { A z q w l 8 z q = > 3 6 0 0 7 8 8 8 8 8 8 8 8 9 6 6 1 , k z 8 z l w z c $.} } } } } } } } } } } } } ",
"} } } } } } } } } } } } } }  .h x w q l l q l 9 < > < 1 2 4 9 9 6 9 6 3 3 1 1 3 0 l q z l w l l S ^ } } } } } } } } } } } } } } ",
"} } } } } } } } } } } } } } } } T A k l q z k w q e 9 9 3 1 < < < < 1 4 9 0 0 z q l l w l l c j %.} } } } } } } } } } } } } } } ",
"} } } } } } } } } } } } } } } } } @.Z e 0 k l z e q q k w q l z l l q z k q 0 l z l w q l m . [ } } } } } } } } } } } } } } } } ",
"} } } } } } } } } } } } } } } } } } [ U D z q z q e z z l l q z e q e z z z z q z 0 l m d [ } } } } } } } } } } } } } } } } } } ",
"} } } } } } } } } } } } } } } } } } } } | >.3.C z w q w q z 0 l q q k k z 0 z z c H E X.} } } } } } } } } } } } } } } } } } } } ",
"} } } } } } } } } } } } } } } } } } } } } } [ O.  V C c x z w z q k z z x n C r ~  .} } } } } } } } } } } } } } } } } } } } } } ",
"} } } } } } } } } } } } } } } } } } } } } } } } } } [ *.) ' ' ' ' ' ' ] =...} } } } } } } } } } } } } } } } } } } } } } } } } } ",
"} } } } } } } } } } } } } } } } } } } } } } } } } } } } } [ } } [ } } } } } } } } } } } } } } } } } } } } } } } } } } } } } } } ",
"} } } } } } } } } } } } } } } } } } } } } } } } } } } } } } } } } } } } } } } } } } } } } } } } } } } } } } } } } } } } } } } } ",
"} } } } } } } } } } } } } } } } } } } } } } } } } } } } } } } } } } } } } } } } } } } } } } } } } } } } } } } } } } } } } } } } ",
"} } } } } } } } } } } } } } } } } } } } } } } } } } } } } } } } } } } } } } } } } } } } } } } } } } } } } } } } } } } } } } } } ",
"} } } } } } } } } } } } } } } } } } } } } } } } } } } } } } } } } } } } } } } } } } } } } } } } } } } } } } } } } } } } } } } } "
};
