/* XPM */
static char *YellowWin64x64[] = {
/* columns rows colors chars-per-pixel */
"64 64 135 2 ",
"   c #000000",
".  c #191907",
"X  c #1F1F09",
"o  c #2B2C0D",
"O  c #2F300F",
"+  c #33330F",
"@  c #373711",
"#  c #373810",
"$  c #3B3B11",
"%  c #434314",
"&  c #474814",
"*  c #4B4C16",
"=  c #4D4D18",
"-  c #4F5016",
";  c #515117",
":  c #535419",
">  c #57581B",
",  c #5B5D1C",
"<  c #62631C",
"1  c #67681C",
"2  c #71721F",
"3  c #797B22",
"4  c #58DB61",
"5  c #5EDC76",
"6  c #51D97B",
"7  c #62DD6A",
"8  c #73DD62",
"9  c #7EDC61",
"0  c #6DDF75",
"q  c #74E071",
"w  c #7AE177",
"e  c #8B8F28",
"r  c #95962A",
"t  c #95992B",
"y  c #9C9D2C",
"u  c #9FA02C",
"i  c #A3A42E",
"p  c #A7A82F",
"a  c #A9AA2F",
"s  c #A6AA30",
"d  c #ABAC31",
"f  c #AFB032",
"g  c #B3B433",
"h  c #B7B835",
"j  c #BABC34",
"k  c #BDBE38",
"l  c #BEC136",
"z  c #BEC23A",
"x  c #C3C537",
"c  c #C7C937",
"v  c #C8CA37",
"b  c #C3C539",
"n  c #C6C93B",
"m  c #CBCD3B",
"M  c #CED13D",
"N  c #D0D23F",
"B  c #8DDC62",
"V  c #99DC63",
"C  c #93DE6C",
"Z  c #A1DF6E",
"A  c #AADD68",
"S  c #B7DC66",
"D  c #BADE6E",
"F  c #8FE176",
"G  c #9BE076",
"H  c #94E27C",
"J  c #A6E177",
"K  c #A8E17A",
"L  c #B7E27F",
"P  c #BFE078",
"I  c #CDCF40",
"U  c #CFD140",
"Y  c #D0D240",
"T  c #D3D44B",
"R  c #D5D653",
"E  c #D7D857",
"W  c #D6D658",
"Q  c #D9D95D",
"!  c #C1DC65",
"~  c #CFDB65",
"^  c #C3DD68",
"/  c #DADA62",
"(  c #D1DD6C",
")  c #DCDC6A",
"_  c #DEDE73",
"`  c #E0DF79",
"'  c #C9E078",
"]  c #DFE077",
"[  c #D6E17C",
"{  c #5EDC91",
"}  c #55DA9A",
"|  c #5BDB9E",
" . c #6BDF80",
".. c #6FE084",
"X. c #79E28D",
"o. c #76E096",
"O. c #7FE492",
"+. c #72E09E",
"@. c #48D7A0",
"#. c #42D6AE",
"$. c #40D6BC",
"%. c #55DAB7",
"&. c #57DBB8",
"*. c #5EDCBA",
"=. c #65DDA3",
"-. c #65DDAF",
";. c #60DDBB",
":. c #34ACD4",
">. c #3AAFD6",
",. c #32B0D4",
"<. c #39B2D5",
"1. c #35BDD5",
"2. c #3BBED6",
"3. c #44B5D8",
"4. c #4BB7DA",
"5. c #3CD5CC",
"6. c #3ACBD4",
"7. c #45D7CE",
"8. c #55DBC4",
"9. c #5BDCC6",
"0. c #40CDD6",
"q. c #43C1D8",
"w. c #4AC3D9",
"e. c #45CFD8",
"r. c #4CD9D1",
"t. c #46D0D8",
"y. c #51D9D1",
"u. c #5DDCD5",
"i. c #60DDC7",
"p. c #86E484",
"a. c #82E489",
"s. c #AFE484",
"d. c #C5E384",
"f. c #CDE382",
"g. c #D7E280",
/* pixels */
",.,.,.,.,.,.,.,.,.,.,.,.,.,.,.,.,.,.,.,.,.,.,.,.,.,.,.,.,.,.,.,.,.,.,.,.,.,.,.,.,.,.,.,.,.,.,.,.,.,.,.,.,.,.,.,.,.,.,.,.,.,.,.,.",
",.,.,.,.,.,.,.,.,.,.,.,.,.,.,.,.,.,.,.,.,.,.,.,.,.,.,.,.,.,.,.,.,.,.,.,.,.,.,.,.,.,.,.,.,.,.,.,.,.,.,.,.,.,.,.,.,.,.,.,.,.,.,.,.",
",.,.,.,.,.,.,.,.,.,.,.,.,.,.,.,.,.,.,.,.,.,.,.,.,.,.,.,.,.,.,.,.,.,.,.,.,.,.,.,.,.,.,.,.,.,.,.,.,.,.,.,.,.,.,.,.,.,.,.,.,.,.,.,.",
",.,.,.,.,.,.,.,.,.,.,.,.,.,.,.,.,.,.,.,.,.,.,.,.,.,.,.,.,.,.,.,.,.,.,.,.,.,.,.,.,.,.,.,.,.,.,.,.,.,.,.,.,.,.,.,.,.,.,.,.,.,.,.,.",
",.,.,.,.,.,.,.,.,.,.,.,.,.,.,.,.,.,.,.,.,.,.,.,.,.,.,.,.,.,.:.,.,.,.,.,.,.,.,.,.,.,.,.,.,.,.,.,.,.,.,.,.,.,.,.,.,.,.,.,.,.,.,.,.",
",.,.,.,.,.,.,.,.,.,.,.,.,.,.,.,.,.,.,.,.,.,.,.,.,.,.,.:.0.y.*.*.*.*.8.t.2.,.,.,.,.,.,.,.,.,.,.,.,.,.,.,.,.,.,.,.,.,.,.,.,.,.,.,.",
",.,.,.,.,.,.,.,.,.,.,.,.,.,.,.,.,.,.,.,.,.,.,.1.@.9 ~ Q W T I U Y U T R Q / A 6 6.:.,.,.,.,.,.,.,.,.,.,.,.,.,.,.,.,.,.,.,.,.,.,.",
",.,.,.,.,.,.,.,.,.,.,.,.,.,.,.,.,.,.,.,.,.w.a.] T M m U U m I m M m U n U m U U ) s.u.,.,.,.,.,.,.,.,.,.,.,.,.,.,.,.,.,.,.,.,.,.",
",.,.,.,.,.,.,.,.,.,.,.,.,.,.,.,.,.,.,.6.f.R n Y M M U U U m M M U m U M U Y N m Y U T _ { ,.,.,.,.,.,.,.,.,.,.,.,.,.,.,.,.,.,.,.",
",.,.,.,.,.,.,.,.,.,.,.,.,.,.,.,.:.>.C T m M U U U n M m U M m M m I U U U m M m Y U M n Y ) 8.,.,.,.,.,.,.,.,.,.,.,.,.,.,.,.,.,.",
",.,.,.,.,.,.,.,.,.,.,.,.,.,.,.,.&.` T Y M U Y m Y n z g d s i i i i i d g z n M U m N m Y I / w ,.,.,.,.,.,.,.,.,.,.,.,.,.,.,.,.",
",.,.,.,.,.,.,.,.,.,.,.,.,.,.:.0 R m m Y Y m m k s u i f h l l l l x l j g d i a k I m M Y m m T P 6.,.,.,.,.,.,.,.,.,.,.,.,.,.,.",
",.,.,.,.,.,.,.,.,.,.,.,.,.,.Z T Y U Y n M k r y j l n c c c c v c c c c c c c l s y b M n U Y m Y / 3.:.,.,.,.,.,.,.,.,.,.,.,.,.",
",.,.,.,.,.,.,.,.,.,.,.,.,.s.I m Y Y m n i y j c c c c c v c v v v v v n c c c c b l a i n Y v Y M m ) q.,.,.,.,.,.,.,.,.,.,.,.,.",
",.,.,.,.,.,.,.,.,.,.,.:.Z m N Y n Y j r h c c c v v v m M M M M m m U M M n c v c c n x d k Y Y U U U Q 6.,.,.,.,.,.,.,.,.,.,.,.",
",.,.,.,.,.,.,.,.,.,.,. .T Y Y m m g y h c c v v m m I v c x l c b b b b n m M n v v c c x d k n m U m Y ' :.,.,.,.,.,.,.,.,.,.,.",
",.,.,.,.,.,.,.,.,.,.%.R m Y U m d i e l c v m M v x x c v v M v M v v v c c c v M n v c v x g j I n Y Y U H :.,.,.,.,.,.,.,.,.,.",
",.,.,.,.,.,.,.,.,.:.] U U m U h u 3   % c m m x c v m M v M M v M M M v M v v v l m M c & 2 x h b U M N M Q } ,.,.,.,.,.,.,.,.,.",
",.,.,.,.,.,.,.,.:.C T m M Y k y y       % z x x M v M M M M M M M M M M M v v v m x b :     2 x g z n Y M m / :.,.,.,.,.,.,.,.,.",
",.,.,.,.,.,.,.,.2.T N Y n n t h b %       # x M v m M M M m v v v v c M N M M M m v &       % x b g I m U Y M q ,.,.,.,.,.,.,.,.",
",.,.,.,.,.,.,.,.d.v m I N i j c c x %       $ v m M m b x M M M M M M v c n M M v %       # x c c x j U Y U m / 2.,.,.,.,.,.,.,.",
",.,.,.,.,.,.:.3.W Y Y I b y c v v M n *       $ m n v M M M M M M M M M M m n n &       $ l M v c c j n m M I Y +.,.,.,.,.,.,.,.",
",.,.,.,.,.,.,.O.N m m m r j c v v M x v ;       & m M M M M M M M M M M M M M :       % v c v v c c c g U Y U n g.1.,.,.,.,.,.,.",
",.,.,.,.,.,.:.[ Y Y I k u c v v M b c M m &       - M M M M M U N M M M M M <       % v v m x M v v c j n m Y Y R #.,.,.,.,.,.,.",
",.,.,.,.,.,.#.T m m U d j c c m n c v M M m $       - m U m m m M v M M M :       + x M M v v v v v c x b Y Y m m B ,.,.,.,.,.,.",
",.,.,.,.,.,.7 M Y M m i c c v m b m M M M v v $       % n n M U N M N v :       o x c M M M v c m v c c b m n Y U ) ,.,.,.,.,.,.",
",.,.,.,.,.,.S m Y n b d c v m m c M v M M v M v %       & I N N N N N ,       O c M M v M M v v n m v c x n M Y n E 2.,.,.,.,.,.",
",.,.,.,.:.:./ Y Y I h g c v m n v v M M v M M M M %       & m U N N <       + n M M M v M v M v v m v b b n m Y Y T 8.:.,.,.,.,.",
",.,.,.,.,.2.W n N m g j c v M n v v v M v M M M U n %       % I Y ,       $ n M M M M M v M M v b m v v c b Y U M U -.,.,.,.,.,.",
",.,.,.,.,.t.R Y Y Y a k v v M b v M M M v M M M U n m &       % =       $ m M n M M M M v M M v n m v n c b M I m M -.,.,.,.,.,.",
",.,.,.,.,.r.T m m M p x v v m b M M M v M M M M M m M U %             @ m U M M N M M M v M M v b m m v x b Y m U m -.,.,.,.,.,.",
",.,.,.,.,.8.T m Y Y p b v v I b v M M v M M M M M M U Y U =         @ m U U M m N M M M v M M m c v v v n b Y I m U -.,.,.,.,.,.",
",.,.,.,.:.8.T m m I p l v m m b v M M n v N N M m m Y U n %         o n Y M M m M M M M v M M v v v v v x n U U U M -.,.,.,.,.,.",
",.,.,.,.,.y.T m Y I p x v v Y b M v M m M M M M Y m Y I $             @ I I M m M M M M v M M M v v v v c b M m m M -.,.,.,.,.,.",
",.,.,.,.,.7.R m m M d x c v U b v M M M v N M N Y v n $       = >       O n U m M M M M v M M v c M v v c n U M U U -.,.,.,.,.,.",
",.,.:.:.:.6.W M Y Y g j v v m n v M v N x M M N Y n $       ; U Y ,       O b M M M M M n M M v x M v v x n U U m I -.,.,.,.,.,.",
",.,.,.,.,.:./ I Y m k g c c m v v v M M n m N N m &       ; U Y Y Y ,       $ m M M M v M v M m c M c c l M U U N T 8.,.,.,.,.,.",
",.,.,.,.,.,.! m Y m b d c v v m c v M M I v m N >       ; m U U N Y Y :       = M M M c N M v v m v c c l M M U m W 2.,.,.,.,.,.",
",.,.,.,.,.,.8 Y Y n m p c c v N v v M v M v m <       * m m M M N N m v &       * m v M M v v b m v v c l U M U M / :.,.,.,.,.,.",
",.,.,.,.,.,.@.T m Y Y f j c v v v v v M M U ;       $ I M M M m m m U U m &       % c M M M c n v v v c n M M n Y V ,.,.,.,.,.,.",
",.,.,.,.,.,.1._ Y Y m b i b v v M c c v M *       + m M M M N M N N M M M m %       $ v M v x m v c c l n U Y Y T @.,.,.,.,.,.,.",
",.,.,.,.,.,.,.p.n M Y Y y x c v v M x v -       + c M M M M M M N M M N M M v &       $ v x m v v c x k Y m M M _ 1.,.,.,.,.,.,.",
",.,.,.,.,.,.,.w.R m U m n i v c v M v *       $ v v v v M M M M M N M N M v v v ;       & n M v c c x I m Y M U X.,.,.,.,.,.,.,.",
",.,.,.,.,.,.,.,.g.m U Y Y d k c v v <       $ v M N N v x m M M M N v c c v M M M -       % c v c c b Y Y m n E 4.,.,.,.,.,.,.,.",
",.,.,.,.,.,.,.,.7.Y Y Y v I i k c 3       @ c v M M M M N v v v v c v M M M M M M v %     X h c x j U n Y Y Y K ,.,.,.,.,.,.,.,.",
",.,.,.,.,.,.,.,.,.D U m Y n b p x c *   o z x v v M M v M M N M M N M M M M v M v x z % . f c x k n M Y m U W :.,.,.,.,.,.,.,.,.",
",.,.,.,.,.,.,.,.,.2._ I I Y Y b a c c 1 x m U b x c v M M v N M M M v M v v v v x M m c j c c l n Y m U U T 7 ,.,.,.,.,.,.,.,.,.",
",.,.,.,.,.,.,.,.,.:.=.T U Y n m j d x c v v v m m x v v v v v m v M v v v v v v m v v v c c j b M M U m U d.:.,.,.,.,.,.,.,.,.,.",
",.,.,.,.,.,.,.,.,.,.:.G T m Y M m b p k b v v v m m m n n b b b x c b b n I m v c c c c b j n I U U m Y _ q.,.,.,.,.,.,.,.,.,.,.",
",.,.,.,.,.,.,.,.,.,.,.:.( m M U Y Y b i k v v v v v m m M U M I I Y Y m m v v v c c c x h n U m U Y m R #.,.,.,.,.,.,.,.,.,.,.,.",
",.,.,.,.,.,.,.,.,.,.,.,.<.[ m I Y m m I g a k c c c c c v v v c c c v v v v v c c l h k U m M U m M Q 9.,.,.,.,.,.,.,.,.,.,.,.,.",
",.,.,.,.,.,.,.,.,.,.,.,.:.<./ T m Y Y v N n i a k c c c c v v c v v v c n n b x h f m U n U U M U R 9.,.,.,.,.,.,.,.,.,.,.,.,.,.",
",.,.,.,.,.,.,.,.,.,.,.,.,.,.1.J T Y m Y Y m U b h d g j h l b c c b x j j h h k n Y m Y U M U U _ $.,.,.,.,.,.,.,.,.,.,.,.,.,.,.",
",.,.,.,.,.,.,.,.,.,.,.,.,.,.,.,...) I Y m Y m U M M n z k h f g g g j k n n n Y m Y U M U M R L q.,.,.,.,.,.,.,.,.,.,.,.,.,.,.,.",
",.,.,.,.,.,.,.,.,.,.,.,.,.,.,.,.,.7.( m n Y m Y m M m U M U U U N Y m Y M m n U U M U m U Q 5 :.,.,.,.,.,.,.,.,.,.,.,.,.,.,.,.,.",
",.,.,.,.,.,.,.,.,.,.,.,.,.,.,.,.,.,.,.| _ T M U m U U U U M m U m U m Y Y Y Y m Y n U Q F :.,.,.,.,.,.,.,.,.,.,.,.,.,.,.,.,.,.,.",
",.,.,.,.,.,.,.,.,.,.,.,.,.,.,.,.,.,.,.,.<.i.d./ N M m M m Y n N I m m M Y m Y m R ] o.3.,.,.,.,.,.,.,.,.,.,.,.,.,.,.,.,.,.,.,.,.",
",.,.,.,.,.,.,.,.,.,.,.,.,.,.,.,.,.,.,.,.,.,.:.5.4 ^ / R T Y M Y U m m T T Q ) 9 #.1.,.,.,.,.,.,.,.,.,.,.,.,.,.,.,.,.,.,.,.,.,.,.",
",.,.,.,.,.,.,.,.,.,.,.,.,.,.,.,.,.,.,.,.,.,.,.,.,.,.:.e.&.-.-.-.-.-.-.;.r.2.,.,.,.,.,.,.,.,.,.,.,.,.,.,.,.,.,.,.,.,.,.,.,.,.,.,.",
",.,.,.,.,.,.,.,.,.,.,.,.,.,.,.,.,.,.,.,.,.,.,.,.,.,.,.,.,.:.,.,.:.,.,.,.,.,.,.,.,.,.,.,.,.,.,.,.,.,.,.,.,.,.,.,.,.,.,.,.,.,.,.,.",
",.,.,.,.,.,.,.,.,.,.,.,.,.,.,.,.,.,.,.,.,.,.,.,.,.,.,.,.,.,.,.,.,.,.,.,.,.,.,.,.,.,.,.,.,.,.,.,.,.,.,.,.,.,.,.,.,.,.,.,.,.,.,.,.",
",.,.,.,.,.,.,.,.,.,.,.,.,.,.,.,.,.,.,.,.,.,.,.,.,.,.,.,.,.,.,.,.,.,.,.,.,.,.,.,.,.,.,.,.,.,.,.,.,.,.,.,.,.,.,.,.,.,.,.,.,.,.,.,.",
",.,.,.,.,.,.,.,.,.,.,.,.,.,.,.,.,.,.,.,.,.,.,.,.,.,.,.,.,.,.,.,.,.,.,.,.,.,.,.,.,.,.,.,.,.,.,.,.,.,.,.,.,.,.,.,.,.,.,.,.,.,.,.,.",
",.,.,.,.,.,.,.,.,.,.,.,.,.,.,.,.,.,.,.,.,.,.,.,.,.,.,.,.,.,.,.,.,.,.,.,.,.,.,.,.,.,.,.,.,.,.,.,.,.,.,.,.,.,.,.,.,.,.,.,.,.,.,.,."
};
